<svg xmlns="http://www.w3.org/2000/svg" viewBox="0 0 40 39"><path fill="#dff0fe" d="M10.5 10.5H29.5V35.5H10.5z"></path><path fill="#98ccfd" d="M2.5 35.5H37.5V38.5H2.5z"></path><path fill="#4788c7" d="M38,39H2v-4h36V39z M3,38h34v-2H3V38z"></path><path fill="#98ccfd" d="M2.5 10.5L2.5 7.523 20 0.625 37.5 7.523 37.5 10.5z"></path><path fill="#4788c7" d="M38,11H2V7.183l18-7.095l18,7.095V11z M3,10h34V7.863l-17-6.7l-17,6.7V10z"></path><path fill="#98ccfd" d="M5.5 13.5H10.5V35.5H5.5z"></path><path fill="#4788c7" d="M11,36H5V13h6V36z M6,35h4V14H6V35z"></path><path fill="#98ccfd" d="M29.5 13.5H34.5V35.5H29.5z"></path><path fill="#4788c7" d="M35,36h-6V13h6V36z M30,35h4V14h-4V35z"></path><path fill="#98ccfd" d="M3.5 10.5H12.5V13.5H3.5z"></path><path fill="#4788c7" d="M12,11v2H4v-2H12 M13,10H3v4h10V10L13,10z"></path><path fill="#98ccfd" d="M27.5 10.5H36.5V13.5H27.5z"></path><path fill="#4788c7" d="M36 11v2h-8v-2H36M37 10H27v4h10V10L37 10zM24.993 26.135c.001-4.311-7.042-3.981-7.042-6.405 0-.781.728-1.455 2.225-1.455 1.695 0 2.871.462 3.82 1.015v-2.636C23.375 16.375 22.344 16.074 21 16v-2h-2v2.076l-.002 0c-1.114.164-2.194.595-2.871 1.244C15.376 18.04 15 18.91 15 19.932c0 4.038 6.998 4.134 6.998 6.347 0 .787-1.026 1.396-2.17 1.396-2.342 0-4.41-.96-4.803-1.266v2.705c1.079.54 2.738.833 3.974.887L19 30v2h2v-2.069c1.255-.157 2.23-.55 2.919-1.184C24.635 28.086 24.993 27.215 24.993 26.135z"></path></svg>
