<svg xmlns="http://www.w3.org/2000/svg" viewBox="0 0 100 100"><path fill="#ee3e54" d="M13,27c-1.105,0-2,0.895-2,2s0.895,2,2,2s2-0.895,2-2S14.105,27,13,27z"></path><path fill="#f1bc19" d="M77,12c-0.551,0-1,0.449-1,1s0.449,1,1,1s1-0.449,1-1S77.551,12,77,12z"></path><path fill="#fce0a2" d="M50,13c-20.434,0-37,16.566-37,37s16.566,37,37,37s37-16.566,37-37S70.434,13,50,13z"></path><path fill="#f1bc19" d="M83,11c-2.211,0-4,1.789-4,4s1.789,4,4,4s4-1.789,4-4S85.211,11,83,11z"></path><path fill="#ee3e54" d="M87,22c-1.105,0-2,0.895-2,2s0.895,2,2,2s2-0.895,2-2S88.105,22,87,22z"></path><path fill="#fbcd59" d="M81,74c-1.105,0-2,0.895-2,2s0.895,2,2,2s2-0.895,2-2S82.105,74,81,74z M15,59 c-2.211,0-4,1.789-4,4s1.789,4,4,4s4-1.789,4-4S17.211,59,15,59z"></path><path fill="#ee3e54" d="M25,85c-1.105,0-2,0.895-2,2s0.895,2,2,2s2-0.895,2-2S26.105,85,25,85z"></path><path fill="#fff" d="M18.5,48c-1.379,0-2.5,1.121-2.5,2.5s1.121,2.5,2.5,2.5s2.5-1.121,2.5-2.5S19.879,48,18.5,48z"></path><path fill="#f1bc19" d="M21,66c-0.551,0-1,0.449-1,1s0.449,1,1,1s1-0.449,1-1S21.551,66,21,66z"></path><path fill="#fff" d="M80,33c-0.551,0-1,0.449-1,1s0.449,1,1,1s1-0.449,1-1S80.551,33,80,33z"></path><path fill="#88ae45" d="M30.431,70.3c-0.907,0-1.646-0.695-1.646-1.55V43.275l-0.717,0.016 c-0.688,0-1.368-0.463-1.368-1.239c0-0.386,0.187-0.745,0.511-0.982l22.471-16.448c0.236-0.173,0.52-0.264,0.818-0.264 s0.582,0.091,0.818,0.264L73.789,41.07c0.324,0.238,0.511,0.596,0.511,0.982c0,0.436-0.214,0.72-0.394,0.882 c-0.252,0.227-0.596,0.357-0.944,0.357h-0.7l-0.047,0.699V68.75c0,0.855-0.738,1.55-1.646,1.55H30.431z"></path><path fill="#472b29" d="M50.5,25.058c0.147,0,0.291,0.045,0.404,0.129l22.471,16.448c0.143,0.104,0.225,0.257,0.225,0.417 c0,0.372-0.373,0.539-0.653,0.539c0,0,0,0,0,0l-1.431-0.032v1.432V68.75c0,0.469-0.424,0.85-0.946,0.85H30.431 c-0.521,0-0.946-0.381-0.946-0.85V43.991l-0.047-1.399h-1.4c-0.265,0-0.638-0.167-0.638-0.539c0-0.161,0.082-0.313,0.225-0.417 l22.471-16.448C50.209,25.104,50.353,25.058,50.5,25.058 M50.5,23.658c-0.434,0-0.868,0.133-1.231,0.399L26.798,40.505 C26.295,40.873,26,41.445,26,42.052c0,1.154,0.988,1.939,2.038,1.939c0.016,0,0.031,0,0.047,0V68.75c0,1.243,1.05,2.25,2.346,2.25 h40.138c1.296,0,2.346-1.007,2.346-2.25V43.991c0.016,0,0.031,0,0.047,0c1.051,0,2.038-0.785,2.038-1.939 c0-0.607-0.295-1.179-0.798-1.547L51.731,24.057C51.368,23.791,50.934,23.658,50.5,23.658L50.5,23.658z"></path><path fill="#472b29" d="M56.938,66.75H45.5c-0.138,0-0.25-0.112-0.25-0.25s0.112-0.25,0.25-0.25h11.438 c0.138,0,0.25,0.112,0.25,0.25S57.075,66.75,56.938,66.75z"></path><path fill="#472b29" d="M63.813,66.75h-4.25c-0.138,0-0.25-0.112-0.25-0.25s0.112-0.25,0.25-0.25h4.25 c0.138,0,0.25,0.112,0.25,0.25S63.95,66.75,63.813,66.75z"></path><g><path fill="#472b29" d="M68.5,66.75h-2.25c-0.138,0-0.25-0.112-0.25-0.25s0.112-0.25,0.25-0.25h2V58.5 c0-0.138,0.112-0.25,0.25-0.25s0.25,0.112,0.25,0.25v8C68.75,66.638,68.638,66.75,68.5,66.75z"></path></g><g><path fill="#472b29" d="M32.5,52.75c-0.138,0-0.25-0.112-0.25-0.25v-11c0-0.138,0.112-0.25,0.25-0.25s0.25,0.112,0.25,0.25 v11C32.75,52.638,32.638,52.75,32.5,52.75z"></path></g><g><path fill="#472b29" d="M32.5,58.75c-0.138,0-0.25-0.112-0.25-0.25V54c0-0.138,0.112-0.25,0.25-0.25s0.25,0.112,0.25,0.25 v4.5C32.75,58.638,32.638,58.75,32.5,58.75z"></path></g><g><line x1="45.5" x2="50.5" y1="32.111" y2="28.5" fill="#fff"></line><path fill="#472b29" d="M45.5,32.361c-0.077,0-0.153-0.036-0.203-0.104c-0.08-0.112-0.055-0.268,0.057-0.349l5-3.611 c0.11-0.081,0.267-0.056,0.35,0.056c0.08,0.112,0.055,0.268-0.057,0.349l-5,3.611C45.603,32.346,45.551,32.361,45.5,32.361z"></path></g><g><line x1="32.5" x2="43.375" y1="41.5" y2="33.646" fill="#fff"></line><path fill="#472b29" d="M32.5,41.75c-0.077,0-0.153-0.036-0.203-0.104c-0.08-0.112-0.055-0.268,0.057-0.349l10.875-7.854 c0.109-0.081,0.267-0.056,0.35,0.056c0.08,0.112,0.055,0.268-0.057,0.349l-10.875,7.854C32.603,41.735,32.551,41.75,32.5,41.75z"></path></g><g><line x1="68.5" x2="50.5" y1="41.5" y2="28.5" fill="#fff"></line><path fill="#472b29" d="M68.5,41.75c-0.051,0-0.103-0.015-0.146-0.047l-18-13c-0.111-0.081-0.137-0.237-0.057-0.349 c0.082-0.112,0.239-0.137,0.35-0.056l18,13c0.111,0.081,0.137,0.237,0.057,0.349C68.653,41.714,68.577,41.75,68.5,41.75z"></path></g><g><path fill="#472b29" d="M68.5,56.563c-0.138,0-0.25-0.112-0.25-0.25V44c0-0.138,0.112-0.25,0.25-0.25s0.25,0.112,0.25,0.25 v12.313C68.75,56.451,68.638,56.563,68.5,56.563z"></path></g><g><path fill="#472b29" d="M34.938,66.75H32.5c-0.138,0-0.25-0.112-0.25-0.25v-5.875c0-0.138,0.112-0.25,0.25-0.25 s0.25,0.112,0.25,0.25v5.625h2.188c0.138,0,0.25,0.112,0.25,0.25S35.075,66.75,34.938,66.75z"></path></g><g><path fill="#472b29" d="M42.5,66.75h-5.313c-0.138,0-0.25-0.112-0.25-0.25s0.112-0.25,0.25-0.25H42.5 c0.138,0,0.25,0.112,0.25,0.25S42.638,66.75,42.5,66.75z"></path></g><g><path fill="#edf7f5" d="M56.829,51.105c-0.494-0.937-1.106-1.652-1.837-2.146c-0.731-0.494-1.524-0.952-2.377-1.374 c-0.854-0.422-1.647-0.772-2.377-1.05c-0.731-0.278-1.343-0.638-1.837-1.081c-0.494-0.442-0.741-0.962-0.741-1.559 c0-0.741,0.303-1.322,0.91-1.744c0.607-0.422,1.467-0.633,2.578-0.633c1.008,0,1.924,0.196,2.748,0.586 c0.823,0.391,1.327,0.586,1.512,0.586c0.494,0,0.885-0.244,1.173-0.734c0.288-0.49,0.432-0.964,0.432-1.422 c0-0.486-0.211-0.909-0.633-1.268c-0.422-0.359-0.968-0.623-1.636-0.792c-0.669-0.169-1.302-0.291-1.899-0.365 c-0.298-0.037-0.564-0.037-0.846-0.055V36.5c0-0.829-0.672-1.5-1.5-1.5S49,35.671,49,36.5v1.728 c-0.178,0.036-0.364,0.056-0.538,0.102c-0.844,0.219-1.636,0.564-2.377,1.034c-0.741,0.47-1.333,1.128-1.776,1.974 c-0.442,0.846-0.663,1.823-0.663,2.93c0,0.988,0.18,1.868,0.54,2.64c0.36,0.772,0.833,1.389,1.42,1.852 c0.587,0.463,1.235,0.88,1.945,1.25s1.415,0.706,2.115,1.003c0.7,0.299,1.343,0.607,1.93,0.926c0.587,0.319,1.06,0.721,1.42,1.204 c0.36,0.484,0.54,1.034,0.54,1.651c0,0.885-0.33,1.554-0.988,2.007c-0.659,0.453-1.482,0.679-2.47,0.679 c-0.721,0-1.379-0.128-1.976-0.385c-0.597-0.257-1.055-0.54-1.374-0.85c-0.319-0.31-0.648-0.593-0.988-0.85 c-0.34-0.256-0.644-0.385-0.911-0.385c-0.453,0-0.859,0.242-1.219,0.726c-0.36,0.484-0.54,0.962-0.54,1.436 c0,0.947,0.699,1.821,2.099,2.624c1.097,0.629,2.371,1.003,3.81,1.139V62.5c0,0.829,0.672,1.5,1.5,1.5s1.5-0.671,1.5-1.5v-1.655 c1.396-0.234,2.586-0.747,3.548-1.565c1.348-1.146,2.022-2.776,2.022-4.887C57.57,53.138,57.323,52.042,56.829,51.105z"></path><path fill="#472b29" d="M54.992,49.46c-0.097,0-0.194-0.028-0.28-0.086c-0.711-0.48-1.491-0.931-2.319-1.34 c-0.839-0.414-1.624-0.761-2.333-1.031c-0.785-0.299-1.456-0.694-1.993-1.176c-0.602-0.539-0.907-1.189-0.907-1.931 c0-0.911,0.379-1.636,1.126-2.155c0.688-0.479,1.651-0.722,2.862-0.722c1.078,0,2.075,0.214,2.962,0.635 c1.025,0.487,1.274,0.534,1.314,0.539c0.196-0.001,0.473-0.056,0.728-0.489c0.24-0.41,0.362-0.803,0.362-1.168 c0-0.34-0.146-0.622-0.457-0.887c-0.36-0.307-0.844-0.539-1.435-0.688c-0.646-0.163-1.266-0.282-1.838-0.353 c-0.184-0.022-0.354-0.03-0.525-0.037l-0.292-0.015c-0.263-0.017-0.467-0.236-0.467-0.499V36.5c0-0.552-0.448-1-1-1s-1,0.448-1,1 v1.728c0,0.239-0.168,0.444-0.402,0.49l-0.221,0.039c-0.098,0.016-0.195,0.031-0.289,0.056c-0.788,0.205-1.54,0.532-2.235,0.973 c-0.233,0.147-0.543,0.079-0.689-0.155c-0.148-0.233-0.079-0.542,0.154-0.69c0.783-0.496,1.631-0.865,2.519-1.096 c0.054-0.014,0.108-0.026,0.164-0.037V36.5c0-1.103,0.897-2,2-2s2,0.897,2,2v1.08c0.132,0.007,0.267,0.017,0.407,0.034 c0.614,0.076,1.273,0.203,1.96,0.376c0.741,0.188,1.359,0.49,1.838,0.896c0.536,0.457,0.809,1.012,0.809,1.649 c0,0.545-0.168,1.109-0.5,1.675c-0.479,0.811-1.138,0.981-1.605,0.981c-0.189,0-0.494-0.049-1.728-0.635 c-0.752-0.357-1.604-0.538-2.533-0.538c-1.002,0-1.773,0.183-2.292,0.543c-0.475,0.33-0.696,0.754-0.696,1.334 c0,0.452,0.188,0.84,0.575,1.187c0.445,0.399,1.011,0.731,1.681,0.986c0.739,0.281,1.554,0.641,2.421,1.069 c0.868,0.429,1.688,0.902,2.437,1.408c0.229,0.155,0.289,0.465,0.134,0.694C55.31,49.383,55.152,49.46,54.992,49.46z"></path><path fill="#472b29" d="M50.5,64.5c-1.103,0-2-0.897-2-2v-1.118c-1.337-0.177-2.532-0.563-3.56-1.152 c-1.559-0.895-2.35-1.923-2.35-3.058c0-0.581,0.215-1.165,0.639-1.734c0.742-0.997,1.701-1.295,2.832-0.441 c0.353,0.266,0.7,0.565,1.035,0.89c0.273,0.266,0.686,0.518,1.224,0.75c0.531,0.229,1.129,0.344,1.778,0.344 c0.88,0,1.616-0.199,2.187-0.591c0.52-0.357,0.771-0.879,0.771-1.595c0-0.511-0.145-0.953-0.442-1.353 c-0.313-0.423-0.737-0.78-1.258-1.063c-0.571-0.31-1.206-0.615-1.887-0.906c-0.7-0.298-1.423-0.641-2.149-1.02 c-0.733-0.382-1.414-0.82-2.023-1.302c-0.217-0.171-0.254-0.485-0.083-0.702c0.171-0.217,0.485-0.253,0.702-0.083 c0.561,0.442,1.188,0.846,1.867,1.199c0.703,0.367,1.402,0.699,2.078,0.987c0.711,0.303,1.374,0.622,1.973,0.947 c0.649,0.353,1.182,0.806,1.583,1.345c0.425,0.57,0.64,1.226,0.64,1.95c0,1.055-0.405,1.869-1.205,2.419 c-0.74,0.509-1.667,0.767-2.753,0.767c-0.786,0-1.518-0.143-2.173-0.426c-0.661-0.284-1.16-0.595-1.525-0.951 c-0.306-0.296-0.622-0.568-0.941-0.809c-0.327-0.247-0.522-0.284-0.609-0.284c-0.105,0-0.428,0-0.817,0.524 c-0.293,0.393-0.441,0.776-0.441,1.137c0,0.75,0.621,1.487,1.848,2.19c1.017,0.583,2.23,0.945,3.608,1.075 c0.257,0.024,0.453,0.24,0.453,0.498V62.5c0,0.552,0.448,1,1,1s1-0.448,1-1v-1.655c0-0.244,0.177-0.453,0.417-0.493 c1.321-0.222,2.435-0.711,3.307-1.453c1.242-1.056,1.846-2.53,1.846-4.506c0-1.167-0.229-2.195-0.684-3.054 c-0.129-0.244-0.035-0.547,0.209-0.676c0.242-0.128,0.547-0.036,0.676,0.209c0.53,1.005,0.799,2.189,0.799,3.521 c0,2.255-0.739,4.027-2.197,5.268c-0.917,0.78-2.05,1.317-3.372,1.598V62.5C52.5,63.603,51.603,64.5,50.5,64.5z"></path><path fill="#472b29" d="M44.187,47.407c-0.188,0-0.368-0.107-0.453-0.289c-0.39-0.834-0.587-1.793-0.587-2.851 c0-1.184,0.242-2.248,0.72-3.162c0.13-0.245,0.431-0.338,0.675-0.211c0.245,0.128,0.34,0.43,0.212,0.675 c-0.402,0.769-0.606,1.677-0.606,2.698c0,0.91,0.166,1.727,0.493,2.428c0.117,0.25,0.009,0.548-0.241,0.665 C44.33,47.392,44.258,47.407,44.187,47.407z"></path></g></svg>