<svg xmlns="http://www.w3.org/2000/svg" viewBox="0 0 100 100"><path fill="#c7ede6" d="M87.215,56.71C88.35,54.555,89,52.105,89,49.5c0-6.621-4.159-12.257-10.001-14.478 C78.999,35.015,79,35.008,79,35c0-11.598-9.402-21-21-21c-9.784,0-17.981,6.701-20.313,15.757C36.211,29.272,34.638,29,33,29 c-7.692,0-14.023,5.793-14.89,13.252C12.906,43.353,9,47.969,9,53.5C9,59.851,14.149,65,20.5,65c0.177,0,0.352-0.012,0.526-0.022 C21.022,65.153,21,65.324,21,65.5C21,76.822,30.178,86,41.5,86c6.437,0,12.175-2.972,15.934-7.614C59.612,80.611,62.64,82,66,82 c4.65,0,8.674-2.65,10.666-6.518C77.718,75.817,78.837,76,80,76c6.075,0,11-4.925,11-11C91,61.689,89.53,58.727,87.215,56.71z"></path><path fill="#fff" d="M47.405,20H37.5c-0.276,0-0.5-0.224-0.5-0.5s0.224-0.5,0.5-0.5h9.905c0.276,0,0.5,0.224,0.5,0.5 S47.682,20,47.405,20z"></path><path fill="#fff" d="M50.5,20h-1c-0.276,0-0.5-0.224-0.5-0.5s0.224-0.5,0.5-0.5h1c0.276,0,0.5,0.224,0.5,0.5 S50.777,20,50.5,20z"></path><path fill="#fff" d="M55.491,22H46.5c-0.276,0-0.5-0.224-0.5-0.5s0.224-0.5,0.5-0.5h8.991c0.276,0,0.5,0.224,0.5,0.5 S55.767,22,55.491,22z"></path><path fill="#fff" d="M44.5,22h-1c-0.276,0-0.5-0.224-0.5-0.5s0.224-0.5,0.5-0.5h1c0.276,0,0.5,0.224,0.5,0.5 S44.777,22,44.5,22z"></path><path fill="#fff" d="M41.5,22h-2c-0.276,0-0.5-0.224-0.5-0.5s0.224-0.5,0.5-0.5h2c0.276,0,0.5,0.224,0.5,0.5 S41.777,22,41.5,22z"></path><path fill="#fff" d="M47.5,24h-2c-0.276,0-0.5-0.224-0.5-0.5s0.224-0.5,0.5-0.5h2c0.276,0,0.5,0.224,0.5,0.5 S47.776,24,47.5,24z"></path><path fill="#fff" d="M50.5,15c-0.177,0-0.823,0-1,0c-0.276,0-0.5,0.224-0.5,0.5c0,0.276,0.224,0.5,0.5,0.5 c0.177,0,0.823,0,1,0c0.276,0,0.5-0.224,0.5-0.5C51,15.224,50.776,15,50.5,15z"></path><path fill="#fff" d="M50.5,17c-0.177,0-4.823,0-5,0c-0.276,0-0.5,0.224-0.5,0.5c0,0.276,0.224,0.5,0.5,0.5 c0.177,0,4.823,0,5,0c0.276,0,0.5-0.224,0.5-0.5C51,17.224,50.776,17,50.5,17z"></path><path fill="#fff" d="M55.5,19c-0.177,0-2.823,0-3,0c-0.276,0-0.5,0.224-0.5,0.5c0,0.276,0.224,0.5,0.5,0.5 c0.177,0,2.823,0,3,0c0.276,0,0.5-0.224,0.5-0.5C56,19.224,55.776,19,55.5,19z"></path><g><path fill="#fff" d="M86.5,63h-10c-0.276,0-0.5-0.224-0.5-0.5s0.224-0.5,0.5-0.5h10c0.276,0,0.5,0.224,0.5,0.5 S86.776,63,86.5,63z"></path><path fill="#fff" d="M90.5,63h-2c-0.276,0-0.5-0.224-0.5-0.5s0.224-0.5,0.5-0.5h2c0.276,0,0.5,0.224,0.5,0.5 S90.776,63,90.5,63z"></path><path fill="#fff" d="M95.5,65h-10c-0.276,0-0.5-0.224-0.5-0.5s0.224-0.5,0.5-0.5h10c0.276,0,0.5,0.224,0.5,0.5 S95.777,65,95.5,65z"></path><path fill="#fff" d="M83.5,65h-1c-0.276,0-0.5-0.224-0.5-0.5s0.224-0.5,0.5-0.5h1c0.276,0,0.5,0.224,0.5,0.5 S83.776,65,83.5,65z"></path><path fill="#fff" d="M80.47,65H78.5c-0.276,0-0.5-0.224-0.5-0.5s0.224-0.5,0.5-0.5h1.97c0.276,0,0.5,0.224,0.5,0.5 S80.746,65,80.47,65z"></path><path fill="#fff" d="M89.5,61h-5c-0.276,0-0.5-0.224-0.5-0.5s0.224-0.5,0.5-0.5h5c0.276,0,0.5,0.224,0.5,0.5 S89.777,61,89.5,61z"></path><path fill="#fff" d="M86.5,67h-2c-0.276,0-0.5-0.224-0.5-0.5s0.224-0.5,0.5-0.5h2c0.276,0,0.5,0.224,0.5,0.5 S86.776,67,86.5,67z"></path></g><g><path fill="#fdfcef" d="M62.875,39.5c0,0-3.64,0-6.125,0s-4.5-2.015-4.5-4.5c0-2.333,1.782-4.229,4.055-4.455 C56.283,30.364,56.25,30.187,56.25,30c0-2.485,2.015-4.5,4.5-4.5c1.438,0,2.703,0.686,3.527,1.736 c0.14-2.636,2.302-4.736,4.973-4.736c2.761,0,5,2.239,5,5c0,0.446-0.077,0.87-0.187,1.282c0.642-0.777,1.6-1.282,2.687-1.282 c1.781,0,3.234,1.335,3.455,3.055c0.181-0.022,0.358-0.055,0.545-0.055c2.485,0,4.5,2.015,4.5,4.5s-2.015,4.5-4.5,4.5 s-9.5,0-9.5,0h-5.375V40h-3V39.5z"></path><path fill="#472b29" d="M69.25,22c3.033,0,5.5,2.467,5.5,5.5c0,0.016,0,0.031,0,0.047c0.602-0.354,1.29-0.547,2-0.547 c1.831,0,3.411,1.261,3.858,3.005C80.655,30.002,80.702,30,80.75,30c2.757,0,5,2.243,5,5s-2.243,5-5,5H65.875 c-0.276,0-0.5-0.224-0.5-0.5s0.224-0.5,0.5-0.5H80.75c2.206,0,4-1.794,4-4s-1.794-4-4-4c-0.117,0-0.23,0.017-0.343,0.032 l-0.141,0.019c-0.021,0.003-0.041,0.004-0.062,0.004c-0.246,0-0.462-0.185-0.495-0.437C79.518,29.125,78.246,28,76.75,28 c-0.885,0-1.723,0.401-2.301,1.1c-0.098,0.118-0.241,0.182-0.386,0.182c-0.078,0-0.156-0.018-0.228-0.056 c-0.209-0.107-0.314-0.346-0.254-0.573c0.116-0.436,0.17-0.802,0.17-1.153c0-2.481-2.019-4.5-4.5-4.5 c-2.381,0-4.347,1.872-4.474,4.263c-0.011,0.208-0.15,0.387-0.349,0.45c-0.05,0.016-0.101,0.024-0.152,0.024 c-0.15,0-0.296-0.069-0.392-0.192C63.112,26.563,61.971,26,60.75,26c-2.206,0-4,1.794-4,4c0,0.117,0.017,0.23,0.032,0.343 l0.019,0.141c0.016,0.134-0.022,0.268-0.106,0.373c-0.084,0.105-0.207,0.172-0.34,0.185C54.299,31.247,52.75,32.949,52.75,35 c0,2.206,1.794,4,4,4h6.125c0.276,0,0.5,0.224,0.5,0.5s-0.224,0.5-0.5,0.5H56.75c-2.757,0-5-2.243-5-5 c0-2.397,1.689-4.413,4.003-4.877C55.751,30.082,55.75,30.041,55.75,30c0-2.757,2.243-5,5-5c1.176,0,2.293,0.416,3.183,1.164 C64.531,23.76,66.695,22,69.25,22L69.25,22z"></path><path fill="#472b29" d="M70.75,29c1.403,0,2.609,0.999,2.913,2.341C74.03,31.119,74.449,31,74.875,31 c1.202,0,2.198,0.897,2.353,2.068C77.431,33.022,77.624,33,77.813,33c1.529,0,2.811,1.2,2.918,2.732 C80.74,35.87,80.636,35.99,80.499,36c-0.006,0-0.012,0-0.018,0c-0.13,0-0.24-0.101-0.249-0.232 c-0.089-1.271-1.151-2.268-2.419-2.268c-0.229,0-0.47,0.042-0.738,0.127c-0.022,0.007-0.045,0.01-0.067,0.01 c-0.055,0-0.11-0.02-0.156-0.054c-0.064-0.047-0.102-0.129-0.102-0.209c0-1.034-0.841-1.875-1.875-1.875 c-0.447,0-0.885,0.168-1.231,0.473c-0.047,0.041-0.106,0.063-0.165,0.063c-0.032,0-0.063-0.006-0.093-0.019 c-0.088-0.035-0.148-0.117-0.155-0.212c-0.102-1.292-1.191-2.305-2.479-2.305c-0.208,0-0.425,0.034-0.682,0.107 c-0.023,0.007-0.047,0.01-0.07,0.01c-0.109,0-0.207-0.073-0.239-0.182c-0.038-0.133,0.039-0.271,0.172-0.309 C70.233,29.04,70.494,29,70.75,29L70.75,29z"></path></g><g><path fill="#88ae45" d="M31.25,72.3c-0.854,0-1.55-0.695-1.55-1.55V46.274l-0.717,0.017c-0.646,0-1.283-0.463-1.283-1.239 c0-0.386,0.183-0.757,0.49-0.991l21.554-16.448c0.219-0.167,0.48-0.256,0.756-0.256s0.537,0.088,0.756,0.256L72.81,44.061 c0.308,0.234,0.49,0.605,0.49,0.991c0,0.443-0.206,0.73-0.378,0.892c-0.235,0.221-0.555,0.347-0.877,0.347h-0.699L71.3,46.991 V70.75c0,0.855-0.695,1.55-1.55,1.55H31.25z"></path><path fill="#472b29" d="M50.5,28.058c0.084,0,0.21,0.02,0.332,0.112l21.554,16.448c0.135,0.103,0.215,0.265,0.215,0.434 c0,0.372-0.324,0.539-0.567,0.539c0,0,0,0,0,0L70.6,45.558v1.433V70.75c0,0.469-0.381,0.85-0.85,0.85h-38.5 c-0.469,0-0.85-0.381-0.85-0.85V46.991l-0.045-1.399h-1.4c-0.23,0-0.555-0.167-0.555-0.539c0-0.169,0.08-0.332,0.215-0.435 L50.169,28.17C50.29,28.078,50.416,28.058,50.5,28.058 M50.5,26.658c-0.416,0-0.832,0.133-1.181,0.399L27.766,43.505 C27.283,43.873,27,44.445,27,45.052c0,1.154,0.947,1.939,1.955,1.939c0.015,0,0.03,0,0.045,0V70.75c0,1.243,1.007,2.25,2.25,2.25 h38.5c1.243,0,2.25-1.007,2.25-2.25V46.991c0.015,0,0.03,0,0.045,0c1.008,0,1.955-0.785,1.955-1.939 c0-0.607-0.283-1.179-0.766-1.547L51.681,27.057C51.332,26.791,50.916,26.658,50.5,26.658L50.5,26.658z"></path><path fill="#472b29" d="M56.938,69.75H44c-0.138,0-0.25-0.112-0.25-0.25s0.112-0.25,0.25-0.25h12.938 c0.138,0,0.25,0.112,0.25,0.25S57.075,69.75,56.938,69.75z"></path><path fill="#472b29" d="M63.813,69.75h-4.25c-0.138,0-0.25-0.112-0.25-0.25s0.112-0.25,0.25-0.25h4.25 c0.138,0,0.25,0.112,0.25,0.25S63.95,69.75,63.813,69.75z"></path><path fill="#472b29" d="M68.5,69.75h-2.25c-0.138,0-0.25-0.112-0.25-0.25s0.112-0.25,0.25-0.25h2V62.5 c0-0.138,0.112-0.25,0.25-0.25s0.25,0.112,0.25,0.25v7C68.75,69.638,68.638,69.75,68.5,69.75z"></path><path fill="#472b29" d="M32.5,62.563c-0.138,0-0.25-0.112-0.25-0.25V45c0-0.138,0.112-0.25,0.25-0.25s0.25,0.112,0.25,0.25 v17.313C32.75,62.451,32.638,62.563,32.5,62.563z"></path><path fill="#472b29" d="M68.5,60.563c-0.138,0-0.25-0.112-0.25-0.25V48c0-0.138,0.112-0.25,0.25-0.25s0.25,0.112,0.25,0.25 v12.313C68.75,60.451,68.638,60.563,68.5,60.563z"></path><path fill="#472b29" d="M34.938,69.75H32.5c-0.138,0-0.25-0.112-0.25-0.25v-4.875c0-0.138,0.112-0.25,0.25-0.25 s0.25,0.112,0.25,0.25v4.625h2.188c0.138,0,0.25,0.112,0.25,0.25S35.075,69.75,34.938,69.75z"></path><path fill="#472b29" d="M42.5,69.75h-5.313c-0.138,0-0.25-0.112-0.25-0.25s0.112-0.25,0.25-0.25H42.5 c0.138,0,0.25,0.112,0.25,0.25S42.638,69.75,42.5,69.75z"></path><line x1="45.5" x2="50.5" y1="35.25" y2="31.5" fill="#fff"></line><path fill="#472b29" d="M45.5,35.5c-0.076,0-0.151-0.034-0.2-0.1c-0.083-0.11-0.061-0.267,0.05-0.35l5-3.75 c0.11-0.082,0.269-0.061,0.351,0.05c0.083,0.11,0.061,0.267-0.05,0.35l-5,3.75C45.605,35.484,45.553,35.5,45.5,35.5z"></path><line x1="32.5" x2="43.375" y1="45" y2="36.844" fill="#fff"></line><path fill="#472b29" d="M32.5,45.25c-0.076,0-0.151-0.034-0.2-0.1c-0.083-0.11-0.061-0.267,0.05-0.35l10.875-8.156 c0.11-0.082,0.269-0.061,0.351,0.05c0.083,0.11,0.061,0.267-0.05,0.35L32.65,45.2C32.605,45.234,32.553,45.25,32.5,45.25z"></path><g><line x1="68.5" x2="50.5" y1="45" y2="31.5" fill="#fff"></line><path fill="#472b29" d="M68.5,45.25c-0.053,0-0.105-0.016-0.15-0.05l-18-13.5c-0.11-0.083-0.133-0.24-0.05-0.35 c0.083-0.111,0.241-0.132,0.351-0.05l18,13.5c0.11,0.083,0.133,0.24,0.05,0.35C68.651,45.216,68.576,45.25,68.5,45.25z"></path></g><g><path fill="#edf7f5" d="M56.829,54.105c-0.494-0.937-1.106-1.652-1.837-2.146c-0.731-0.494-1.524-0.952-2.377-1.374 c-0.854-0.422-1.647-0.772-2.377-1.05c-0.731-0.278-1.343-0.638-1.837-1.081c-0.494-0.442-0.741-0.962-0.741-1.559 c0-0.741,0.303-1.322,0.91-1.744c0.607-0.422,1.467-0.633,2.578-0.633c1.008,0,1.924,0.196,2.748,0.586 c0.823,0.391,1.327,0.586,1.512,0.586c0.494,0,0.885-0.244,1.173-0.734c0.288-0.49,0.432-0.964,0.432-1.422 c0-0.486-0.211-0.909-0.633-1.268c-0.422-0.359-0.968-0.623-1.636-0.792c-0.669-0.169-1.302-0.291-1.899-0.365 c-0.298-0.037-0.564-0.037-0.846-0.055V39.5c0-0.829-0.672-1.5-1.5-1.5S49,38.671,49,39.5v1.728 c-0.178,0.036-0.364,0.056-0.538,0.102c-0.844,0.219-1.636,0.564-2.377,1.034c-0.741,0.47-1.333,1.128-1.776,1.974 c-0.442,0.846-0.663,1.823-0.663,2.93c0,0.988,0.18,1.868,0.54,2.64c0.36,0.772,0.833,1.389,1.42,1.852 c0.587,0.463,1.235,0.88,1.945,1.25s1.415,0.706,2.115,1.003c0.7,0.299,1.343,0.607,1.93,0.926 c0.587,0.319,1.06,0.721,1.42,1.204c0.36,0.484,0.54,1.034,0.54,1.651c0,0.885-0.33,1.554-0.988,2.007 c-0.659,0.453-1.482,0.679-2.47,0.679c-0.721,0-1.379-0.128-1.976-0.385c-0.597-0.257-1.055-0.54-1.374-0.85 c-0.319-0.31-0.648-0.593-0.988-0.85c-0.34-0.256-0.644-0.385-0.911-0.385c-0.453,0-0.859,0.242-1.219,0.726 c-0.36,0.484-0.54,0.962-0.54,1.436c0,0.947,0.699,1.821,2.099,2.624c1.097,0.629,2.371,1.003,3.81,1.139V65.5 c0,0.829,0.672,1.5,1.5,1.5s1.5-0.671,1.5-1.5v-1.655c1.396-0.234,2.586-0.747,3.548-1.565c1.348-1.146,2.022-2.776,2.022-4.887 C57.57,56.138,57.323,55.042,56.829,54.105z"></path><path fill="#472b29" d="M54.992,52.46c-0.097,0-0.194-0.028-0.28-0.086c-0.711-0.48-1.491-0.931-2.319-1.34 c-0.839-0.414-1.624-0.761-2.333-1.031c-0.785-0.299-1.456-0.694-1.993-1.176c-0.602-0.539-0.907-1.189-0.907-1.931 c0-0.911,0.379-1.636,1.126-2.155c0.688-0.479,1.651-0.722,2.862-0.722c1.078,0,2.075,0.214,2.962,0.635 c1.025,0.487,1.274,0.534,1.314,0.539c0.196-0.001,0.473-0.056,0.728-0.489c0.24-0.41,0.362-0.803,0.362-1.168 c0-0.34-0.146-0.622-0.457-0.887c-0.36-0.307-0.844-0.539-1.435-0.688c-0.646-0.163-1.266-0.282-1.838-0.353 c-0.184-0.022-0.354-0.03-0.525-0.037l-0.292-0.015c-0.263-0.017-0.467-0.236-0.467-0.499V39.5c0-0.552-0.448-1-1-1s-1,0.448-1,1 v1.728c0,0.239-0.168,0.444-0.402,0.49l-0.221,0.039c-0.098,0.016-0.195,0.031-0.289,0.056c-0.788,0.205-1.54,0.532-2.235,0.973 c-0.233,0.146-0.543,0.079-0.689-0.155c-0.148-0.233-0.079-0.542,0.154-0.69c0.783-0.496,1.631-0.865,2.519-1.096 c0.054-0.014,0.108-0.026,0.164-0.037V39.5c0-1.103,0.897-2,2-2s2,0.897,2,2v1.08c0.132,0.007,0.267,0.017,0.407,0.034 c0.614,0.076,1.273,0.203,1.96,0.376c0.741,0.188,1.359,0.49,1.838,0.896c0.536,0.457,0.809,1.012,0.809,1.649 c0,0.545-0.168,1.109-0.5,1.675c-0.479,0.811-1.138,0.981-1.605,0.981c-0.189,0-0.494-0.049-1.728-0.635 c-0.752-0.357-1.604-0.538-2.533-0.538c-1.002,0-1.773,0.183-2.292,0.543c-0.475,0.33-0.696,0.754-0.696,1.334 c0,0.452,0.188,0.84,0.575,1.187c0.445,0.399,1.011,0.731,1.681,0.986c0.739,0.281,1.554,0.641,2.421,1.069 c0.868,0.429,1.688,0.902,2.437,1.408c0.229,0.155,0.289,0.465,0.134,0.694C55.31,52.383,55.152,52.46,54.992,52.46z"></path><path fill="#472b29" d="M50.5,67.5c-1.103,0-2-0.897-2-2v-1.118c-1.337-0.177-2.532-0.563-3.56-1.152 c-1.559-0.895-2.35-1.923-2.35-3.058c0-0.581,0.215-1.165,0.639-1.734c0.742-0.997,1.701-1.295,2.832-0.441 c0.353,0.266,0.7,0.565,1.035,0.89c0.273,0.266,0.686,0.518,1.224,0.75c0.531,0.229,1.129,0.344,1.778,0.344 c0.88,0,1.616-0.199,2.187-0.591c0.52-0.357,0.771-0.879,0.771-1.595c0-0.511-0.145-0.953-0.442-1.353 c-0.313-0.423-0.737-0.78-1.258-1.063c-0.571-0.31-1.206-0.615-1.887-0.906c-0.7-0.298-1.423-0.641-2.149-1.02 c-0.733-0.382-1.414-0.82-2.023-1.302c-0.217-0.171-0.254-0.485-0.083-0.702s0.485-0.254,0.702-0.083 c0.561,0.442,1.188,0.846,1.867,1.199c0.703,0.367,1.402,0.699,2.078,0.987c0.711,0.303,1.374,0.622,1.973,0.947 c0.649,0.353,1.182,0.806,1.583,1.345c0.425,0.57,0.64,1.226,0.64,1.95c0,1.055-0.405,1.869-1.205,2.419 c-0.74,0.509-1.667,0.767-2.753,0.767c-0.786,0-1.518-0.143-2.173-0.426c-0.661-0.284-1.16-0.595-1.525-0.951 c-0.306-0.296-0.622-0.568-0.941-0.809c-0.327-0.247-0.522-0.284-0.609-0.284c-0.105,0-0.428,0-0.817,0.524 c-0.293,0.393-0.441,0.776-0.441,1.137c0,0.75,0.621,1.487,1.848,2.19c1.017,0.583,2.23,0.945,3.608,1.075 c0.257,0.024,0.453,0.24,0.453,0.498V65.5c0,0.552,0.448,1,1,1s1-0.448,1-1v-1.655c0-0.244,0.177-0.453,0.417-0.493 c1.321-0.222,2.435-0.711,3.307-1.453c1.242-1.056,1.846-2.53,1.846-4.506c0-1.167-0.229-2.195-0.684-3.054 c-0.129-0.244-0.035-0.547,0.209-0.676c0.242-0.128,0.547-0.036,0.676,0.209c0.53,1.005,0.799,2.189,0.799,3.521 c0,2.255-0.739,4.027-2.197,5.268c-0.917,0.78-2.05,1.317-3.372,1.598V65.5C52.5,66.603,51.603,67.5,50.5,67.5z"></path><path fill="#472b29" d="M44.187,50.407c-0.188,0-0.368-0.107-0.453-0.289c-0.39-0.834-0.587-1.793-0.587-2.851 c0-1.184,0.242-2.248,0.72-3.162c0.13-0.245,0.431-0.338,0.675-0.211c0.245,0.128,0.34,0.43,0.212,0.675 c-0.402,0.769-0.606,1.677-0.606,2.698c0,0.91,0.166,1.727,0.493,2.428c0.117,0.25,0.009,0.548-0.241,0.665 C44.33,50.392,44.258,50.407,44.187,50.407z"></path></g></g><g><path fill="#fdfcef" d="M17.375,64.5c0,0-1.567,0-3.5,0s-3.5-1.567-3.5-3.5c0-1.781,1.335-3.234,3.055-3.455 c-0.028-0.179-0.055-0.358-0.055-0.545c0-1.933,1.567-3.5,3.5-3.5c1.032,0,1.95,0.455,2.59,1.165 c0.384-1.808,1.987-3.165,3.91-3.165c2.209,0,4,1.791,4,4c0,0.191-0.03,0.374-0.056,0.558c0.428-0.344,0.965-0.558,1.556-0.558 c1.228,0,2.245,0.887,2.455,2.055c0.179-0.028,0.358-0.055,0.545-0.055c1.933,0,3.5,1.567,3.5,3.5s-1.567,3.5-3.5,3.5 s-7.5,0-7.5,0V65h-7V64.5z"></path><path fill="#472b29" d="M15.625,60c0.138,0,0.25-0.112,0.25-0.25c0-1.223-0.995-2.218-2.218-2.218 c-0.034,0.009-0.737-0.001-1.244,0.136c-0.133,0.036-0.212,0.173-0.176,0.306c0.036,0.134,0.173,0.213,0.306,0.176 c0.444-0.12,1.1-0.12,1.113-0.118c0.948,0,1.719,0.771,1.719,1.718C15.375,59.888,15.487,60,15.625,60z"></path><circle cx="22.375" cy="64.5" r=".5" fill="#472b29"></circle><path fill="#472b29" d="M13.875,65h3.5c0.276,0,0.5-0.224,0.5-0.5s-0.224-0.5-0.5-0.5h-3.5c-1.654,0-3-1.346-3-3 c0-1.496,1.125-2.768,2.618-2.959c0.134-0.018,0.255-0.088,0.336-0.196s0.115-0.244,0.094-0.377 C13.9,57.314,13.875,57.16,13.875,57c0-1.654,1.346-3,3-3c0.85,0,1.638,0.355,2.219,1c0.125,0.139,0.321,0.198,0.5,0.148 c0.182-0.049,0.321-0.195,0.36-0.379C20.295,53.165,21.734,52,23.375,52c1.93,0,3.5,1.57,3.5,3.5c0,0.143-0.021,0.28-0.041,0.418 c-0.029,0.203,0.063,0.438,0.242,0.54c0.179,0.102,0.396,0.118,0.556-0.01C27.997,56.155,28.426,56,28.875,56 c0.966,0,1.792,0.691,1.963,1.644c0.048,0.267,0.296,0.446,0.569,0.405C31.561,58.025,31.715,58,31.875,58c1.654,0,3,1.346,3,3 s-1.346,3-3,3h-7.5c-0.276,0-0.5,0.224-0.5,0.5s0.224,0.5,0.5,0.5h7.5c2.206,0,4-1.794,4-4s-1.794-4-4-4 c-0.059,0-0.116,0.002-0.174,0.006C31.287,55.82,30.164,55,28.875,55c-0.349,0-0.689,0.061-1.011,0.18 C27.699,52.847,25.749,51,23.375,51c-1.831,0-3.466,1.127-4.153,2.774C18.542,53.276,17.72,53,16.875,53c-2.206,0-4,1.794-4,4 c0,0.048,0.001,0.095,0.004,0.142C11.136,57.59,9.875,59.169,9.875,61C9.875,63.206,11.669,65,13.875,65z"></path><path fill="#472b29" d="M19.375,64c0.159,0,0.841,0,1,0c0.276,0,0.5,0.224,0.5,0.5c0,0.276-0.224,0.5-0.5,0.5 c-0.159,0-0.841,0-1,0c-0.276,0-0.5-0.224-0.5-0.5C18.875,64.224,19.099,64,19.375,64z"></path></g></svg>