<svg xmlns="http://www.w3.org/2000/svg" data-name="Layer 1" viewBox="0 0 64 64"><path fill="#ed7899" d="M59,59H5a2,2,0,0,1-2-2V30.51a1,1,0,0,1,1.39-.92l6.4,2.7a2,2,0,0,0,2.16-.39L26.17,19.3a2,2,0,0,1,1.93-.48l13.39,3.8a2,2,0,0,0,1.85-.41l16-13.8A1,1,0,0,1,61,9.18V57A2,2,0,0,1,59,59Z"></path><path fill="#85cbf8" d="M59,59H5a2,2,0,0,1-2-2V39l19,3.9L34.59,31.32l13.27,5.62L61,31.43V57A2,2,0,0,1,59,59Z"></path><path fill="#7bbeeb" d="M7,54H57a4,4,0,0,1,4,4v0a1,1,0,0,1-1,1H4a1,1,0,0,1-1-1v0a4,4,0,0,1,4-4Z"></path><path fill="#8d6c9f" d="M62,31V9.18a2,2,0,0,0-3.31-1.51l-16,13.79a1,1,0,0,1-.93.2l-13.39-3.8a3,3,0,0,0-2.89.71L12.26,31.17a1,1,0,0,1-1.08.2l-6.4-2.7A2,2,0,0,0,2,30.51V57a3,3,0,0,0,3,3H59a3,3,0,0,0,3-3V31ZM59,58H5a1,1,0,0,1-1-1V30.51l6.4,2.7a3,3,0,0,0,3.23-.59L26.86,20a1,1,0,0,1,1-.24l13.39,3.8A3,3,0,0,0,44,23L60,9.18V30.35L48,35.64a1,1,0,0,1-.83,0L35.72,30.22a3,3,0,0,0-3.43.61L22,41.32a1,1,0,0,1-.91.28l-6.64-1.32a1,1,0,0,0-.39,2l6.64,1.32a3,3,0,0,0,2.73-.85L33.72,32.23a1,1,0,0,1,1.14-.2l11.41,5.41a3,3,0,0,0,2.49,0L60,32.53V57A1,1,0,0,1,59,58Z"></path><path fill="#8d6c9f" d="M10.53 39.48L8.23 39a1 1 0 0 0-.39 2l2.3.46.2 0a1 1 0 0 0 .19-2zM7 52a1 1 0 0 0-1 1v2a1 1 0 0 0 2 0V53A1 1 0 0 0 7 52zM12 52a1 1 0 0 0-1 1v2a1 1 0 0 0 2 0V53A1 1 0 0 0 12 52zM17 52a1 1 0 0 0-1 1v2a1 1 0 0 0 2 0V53A1 1 0 0 0 17 52zM22 52a1 1 0 0 0-1 1v2a1 1 0 0 0 2 0V53A1 1 0 0 0 22 52zM27 52a1 1 0 0 0-1 1v2a1 1 0 0 0 2 0V53A1 1 0 0 0 27 52zM32 52a1 1 0 0 0-1 1v2a1 1 0 0 0 2 0V53A1 1 0 0 0 32 52zM37 52a1 1 0 0 0-1 1v2a1 1 0 0 0 2 0V53A1 1 0 0 0 37 52zM42 52a1 1 0 0 0-1 1v2a1 1 0 0 0 2 0V53A1 1 0 0 0 42 52zM47 52a1 1 0 0 0-1 1v2a1 1 0 0 0 2 0V53A1 1 0 0 0 47 52zM52 52a1 1 0 0 0-1 1v2a1 1 0 0 0 2 0V53A1 1 0 0 0 52 52zM57 52a1 1 0 0 0-1 1v2a1 1 0 0 0 2 0V53A1 1 0 0 0 57 52z"></path></svg>
