<svg xmlns="http://www.w3.org/2000/svg" viewBox="0 0 100 100"><path fill="#ee3e54" d="M13 27A2 2 0 1 0 13 31A2 2 0 1 0 13 27Z"></path><path fill="#f1bc19" d="M77 12A1 1 0 1 0 77 14A1 1 0 1 0 77 12Z"></path><path fill="#fce0a2" d="M50 13A37 37 0 1 0 50 87A37 37 0 1 0 50 13Z"></path><path fill="#f1bc19" d="M83 11A4 4 0 1 0 83 19A4 4 0 1 0 83 11Z"></path><path fill="#ee3e54" d="M87 22A2 2 0 1 0 87 26A2 2 0 1 0 87 22Z"></path><path fill="#fbcd59" d="M81 74A2 2 0 1 0 81 78 2 2 0 1 0 81 74zM15 59A4 4 0 1 0 15 67 4 4 0 1 0 15 59z"></path><path fill="#ee3e54" d="M25 85A2 2 0 1 0 25 89A2 2 0 1 0 25 85Z"></path><path fill="#fff" d="M18.5 51A2.5 2.5 0 1 0 18.5 56A2.5 2.5 0 1 0 18.5 51Z"></path><path fill="#f1bc19" d="M21 66A1 1 0 1 0 21 68A1 1 0 1 0 21 66Z"></path><path fill="#fff" d="M80 33A1 1 0 1 0 80 35A1 1 0 1 0 80 33Z"></path><g><path fill="#5aba9e" d="M64.7 54.7H72.3V71.30000000000001H64.7z"></path><path fill="#472b29" d="M71.6,55.4v15.2h-6.2V55.4H71.6 M73,54h-9v18h9V54L73,54z"></path></g><g><path fill="#ea5167" d="M52.7 43.7H60.300000000000004V71.30000000000001H52.7z"></path><path fill="#472b29" d="M59.6,44.4v26.2h-6.2V44.4H59.6 M61,43h-9v29h9V43L61,43z"></path></g><g><path fill="#fcee21" d="M40.7 58.7H48.300000000000004V71.3H40.7z"></path><path fill="#472b29" d="M47.6,59.4v11.2h-6.2V59.4H47.6 M49,58h-9v14h9V58L49,58z"></path></g><g><path fill="#73b2e5" d="M28.7 48.7H36.3V71.30000000000001H28.7z"></path><path fill="#472b29" d="M35.6,49.4v21.2h-6.2V49.4H35.6 M37,48h-9v24h9V48L37,48z"></path></g><g><path fill="#472b29" d="M74.5,71.888h-48c-0.387,0-0.7-0.313-0.7-0.7s0.313-0.7,0.7-0.7h48c0.387,0,0.7,0.313,0.7,0.7 S74.887,71.888,74.5,71.888z"></path></g><g><path fill="#472b29" d="M44.551 40.108L32.518 33.089 26.777 36.916 26.223 36.084 32.482 31.911 44.449 38.892 56.456 28.886 69.51 36.919 76.252 33.065 76.748 33.935 69.49 38.081 56.544 30.114z"></path></g><g><path fill="#f1bc19" d="M56 26.5A2.5 2.5 0 1 0 56 31.5A2.5 2.5 0 1 0 56 26.5Z"></path><path fill="#472b29" d="M56,32.2c-1.765,0-3.2-1.436-3.2-3.2s1.436-3.2,3.2-3.2s3.2,1.436,3.2,3.2S57.765,32.2,56,32.2z M56,27.2c-0.992,0-1.8,0.808-1.8,1.8s0.808,1.8,1.8,1.8s1.8-0.808,1.8-1.8S56.992,27.2,56,27.2z"></path></g><g><path fill="#f1bc19" d="M69 34.5A2.5 2.5 0 1 0 69 39.5A2.5 2.5 0 1 0 69 34.5Z"></path><path fill="#472b29" d="M69,40.2c-1.765,0-3.2-1.436-3.2-3.2s1.436-3.2,3.2-3.2s3.2,1.436,3.2,3.2S70.765,40.2,69,40.2z M69,35.2c-0.992,0-1.8,0.808-1.8,1.8s0.808,1.8,1.8,1.8s1.8-0.808,1.8-1.8S69.992,35.2,69,35.2z"></path></g><g><path fill="#f1bc19" d="M44 36.5A2.5 2.5 0 1 0 44 41.5A2.5 2.5 0 1 0 44 36.5Z"></path><path fill="#472b29" d="M44,42.2c-1.765,0-3.2-1.436-3.2-3.2s1.436-3.2,3.2-3.2s3.2,1.436,3.2,3.2S45.765,42.2,44,42.2z M44,37.2c-0.992,0-1.8,0.808-1.8,1.8s0.808,1.8,1.8,1.8s1.8-0.808,1.8-1.8S44.992,37.2,44,37.2z"></path></g><g><path fill="#f1bc19" d="M32.5 30A2.5 2.5 0 1 0 32.5 35A2.5 2.5 0 1 0 32.5 30Z"></path><path fill="#472b29" d="M32.5,35.7c-1.765,0-3.2-1.436-3.2-3.2s1.436-3.2,3.2-3.2s3.2,1.436,3.2,3.2S34.265,35.7,32.5,35.7z M32.5,30.7c-0.992,0-1.8,0.808-1.8,1.8s0.808,1.8,1.8,1.8s1.8-0.808,1.8-1.8S33.492,30.7,32.5,30.7z"></path></g></svg>