<svg xmlns="http://www.w3.org/2000/svg" viewBox="0 0 100 100"><path fill="#78a2d2" d="M17 50H29V83H17z"></path><path fill="#f9e65c" d="M35 65H47V83H35z"></path><path fill="#60be92" d="M71 59H83V83H71z"></path><path fill="#f15b6c" d="M53 43H65V83H53z"></path><path fill="none" stroke="#1f212b" stroke-linejoin="round" stroke-miterlimit="10" stroke-width="2" d="M17 50H29V83H17zM35 65H47V83H35zM71 59H83V83H71zM53 43H65V83H53z"></path><path fill="none" stroke="#1f212b" stroke-linecap="round" stroke-linejoin="round" stroke-miterlimit="10" stroke-width="2" d="M13 83L87 83"></path><path fill="none" stroke="#1f212b" stroke-linecap="round" stroke-linejoin="round" stroke-miterlimit="10" d="M12.5 30.5L23 24 41 36 58 20 77 32 87.5 24.5"></path><path fill="#f9e65c" d="M23 21A4 4 0 1 0 23 29 4 4 0 1 0 23 21zM41 31A4 4 0 1 0 41 39 4 4 0 1 0 41 31zM58 17A4 4 0 1 0 58 25 4 4 0 1 0 58 17zM77 27A4 4 0 1 0 77 35 4 4 0 1 0 77 27z"></path><path fill="none" stroke="#1f212b" stroke-linecap="round" stroke-linejoin="round" stroke-miterlimit="10" stroke-width="2" d="M23 21A4 4 0 1 0 23 29 4 4 0 1 0 23 21zM41 31A4 4 0 1 0 41 39 4 4 0 1 0 41 31zM58 17A4 4 0 1 0 58 25 4 4 0 1 0 58 17zM77 27A4 4 0 1 0 77 35 4 4 0 1 0 77 27z"></path><path fill="none" stroke="#1f212b" stroke-linecap="round" stroke-linejoin="round" stroke-miterlimit="10" d="M20.5 53.5L20.5 55.5M20.5 58.5L20.5 62.5M20.5 65.5L20.5 79.5M38.5 68.5L38.5 70.5M38.5 73.5L38.5 79.5M74.5 63.5L74.5 65.5M74.5 68.5L74.5 79.5M56.5 46.5L56.5 48.5M56.5 51.5L56.5 55.5M56.5 58.5L56.5 79.5"></path></svg>
