<svg xmlns="http://www.w3.org/2000/svg" viewBox="0 0 40 40"><path fill="#98ccfd" d="M4,32.5c-1.379,0-2.5-1.122-2.5-2.5V10c0-1.378,1.121-2.5,2.5-2.5h32c1.379,0,2.5,1.122,2.5,2.5v20c0,1.378-1.121,2.5-2.5,2.5H4z"></path><path fill="#4788c7" d="M36,8c1.103,0,2,0.897,2,2v20c0,1.103-0.897,2-2,2H4c-1.103,0-2-0.897-2-2V10c0-1.103,0.897-2,2-2H36 M36,7H4c-1.657,0-3,1.343-3,3v20c0,1.657,1.343,3,3,3h32c1.657,0,3-1.343,3-3V10C39,8.343,37.657,7,36,7L36,7z"></path><path fill="#4788c7" d="M1 12H39V16H1z"></path><path fill="#fff" d="M5 18H17V20H5z"></path></svg>
