<svg xmlns="http://www.w3.org/2000/svg" viewBox="0 0 64 64"><path fill="#85cbf8" d="M61,15v34c0,1.105-0.895,2-2,2H5c-1.105,0-2-0.895-2-2V15c0-1.105,0.895-2,2-2h54 C60.105,13,61,13.895,61,15z"></path><path fill="#96d7f9" d="M33 50.9L16.5 50.9 46.5 13 60 13 61 15.53zM40.5 13L10.36 51 6.16 51 6.16 50.61 36 13zM31.5 13L3 48.99 3 47.1 30 13z"></path><path fill="#8b8e98" d="M3 19H61V29H3z"></path><path fill="#8d6c9f" d="M59,12H5c-1.657,0-3,1.343-3,3v34c0,1.657,1.343,3,3,3h54c1.657,0,3-1.343,3-3V15 C62,13.343,60.657,12,59,12z M5,14h54c0.552,0,1,0.448,1,1v13H4v-8h45c0.552,0,1-0.448,1-1s-0.448-1-1-1H4v-3 C4,14.448,4.448,14,5,14z M60,49c0,0.552-0.448,1-1,1H5c-0.552,0-1-0.448-1-1V30h56V49z"></path><path fill="#a9a7ae" d="M7 22c-.552 0-1 .448-1 1v2c0 .552.448 1 1 1s1-.448 1-1v-2C8 22.448 7.552 22 7 22zM12 22c-.552 0-1 .448-1 1v2c0 .552.448 1 1 1s1-.448 1-1v-2C13 22.448 12.552 22 12 22zM17 22c-.552 0-1 .448-1 1v2c0 .552.448 1 1 1s1-.448 1-1v-2C18 22.448 17.552 22 17 22zM22 22c-.552 0-1 .448-1 1v2c0 .552.448 1 1 1s1-.448 1-1v-2C23 22.448 22.552 22 22 22zM27 22c-.552 0-1 .448-1 1v2c0 .552.448 1 1 1s1-.448 1-1v-2C28 22.448 27.552 22 27 22zM32 22c-.552 0-1 .448-1 1v2c0 .552.448 1 1 1s1-.448 1-1v-2C33 22.448 32.552 22 32 22zM37 22c-.552 0-1 .448-1 1v2c0 .552.448 1 1 1s1-.448 1-1v-2C38 22.448 37.552 22 37 22zM42 22c-.552 0-1 .448-1 1v2c0 .552.448 1 1 1s1-.448 1-1v-2C43 22.448 42.552 22 42 22zM47 22c-.552 0-1 .448-1 1v2c0 .552.448 1 1 1s1-.448 1-1v-2C48 22.448 47.552 22 47 22zM52 26c.552 0 1-.448 1-1v-2c0-.552-.448-1-1-1s-1 .448-1 1v2C51 25.552 51.448 26 52 26zM57 22c-.552 0-1 .448-1 1v2c0 .552.448 1 1 1s1-.448 1-1v-2C58 22.448 57.552 22 57 22z"></path><path fill="#8d6c9f" d="M31 38h4c.552 0 1-.448 1-1s-.448-1-1-1h-4c-.552 0-1 .448-1 1S30.448 38 31 38zM11 38h14c.552 0 1-.448 1-1s-.448-1-1-1H11c-.552 0-1 .448-1 1S10.448 38 11 38zM11 42h11c.552 0 1-.448 1-1s-.448-1-1-1H11c-.552 0-1 .448-1 1S10.448 42 11 42zM53 20h4c.552 0 1-.448 1-1s-.448-1-1-1h-4c-.552 0-1 .448-1 1S52.448 20 53 20z"></path></svg>