<svg xmlns="http://www.w3.org/2000/svg" viewBox="0 0 40 40"><path fill="#dff0fe" d="M1.5 35.5L1.5 30.056 6.828 6.5 33.172 6.5 38.5 30.056 38.5 35.5z"></path><path fill="#4788c7" d="M32.772,7L38,30.112V35H2v-4.888L7.228,7H32.772 M33.571,6H6.429L1,30v6h38v-6L33.571,6L33.571,6z"></path><path fill="#4788c7" d="M20,2c1.103,0,2,0.897,2,2s-0.897,2-2,2s-2-0.897-2-2S18.897,2,20,2 M20,1c-1.657,0-3,1.343-3,3 s1.343,3,3,3s3-1.343,3-3S21.657,1,20,1L20,1z"></path><path fill="#b6dcfe" d="M2 30H38V35H2z"></path><path fill="#4788c7" d="M18,15c0-0.842,0.463-1.5,2-1.5c1.74,0,3.049,0.417,4.022,1.013L24,12c-0.724-0.407-2.594-1-4-1 c-3.219,0-5,2.281-5,4c0,4.35,7,4.616,7,7c0,0.849-0.826,1.5-2,1.5c-2.404,0-4.597-0.989-5-1.318V25c1.215,0.638,3.312,1,5,1 c1.75,0,5-0.594,5-4C25,17.356,18,17.611,18,15z"></path><path fill="#4788c7" d="M19 9H21V12H19zM19 25H21V28H19z"></path></svg>
