<svg xmlns="http://www.w3.org/2000/svg" viewBox="0 0 40 40"><path fill="#b0c1d4" d="M1.5 35.5L1.5 30.056 6.828 6.5 33.172 6.5 38.5 30.056 38.5 35.5z"></path><path fill="#66798f" d="M32.772,7L38,30.112V35H2v-4.888L7.228,7H32.772 M33.571,6H6.429L1,30v6h38v-6L33.571,6L33.571,6z"></path><path fill="#66798f" d="M20,2c1.103,0,2,0.897,2,2s-0.897,2-2,2s-2-0.897-2-2S18.897,2,20,2 M20,1c-1.657,0-3,1.343-3,3 s1.343,3,3,3s3-1.343,3-3S21.657,1,20,1L20,1z"></path><path fill="#a3b3c4" d="M2 30H38V35H2z"></path><path fill="#fff" d="M17.772,15.359c0-0.833,0.747-1.552,2.284-1.552c1.74,0,2.993,0.493,3.966,1.083v-2.812	c-0.724-0.403-1.817-0.639-3.282-0.708V9.474h-1.521v1.938c-1.271,0.125-2.292,0.572-3.062,1.339C15.386,13.518,15,14.446,15,15.536	c0,4.308,7.231,4.441,7.231,6.802c0,0.84-1.053,1.49-2.227,1.49c-2.404,0-4.319-1.017-4.722-1.344v2.885	c1.215,0.632,2.528,0.951,3.938,0.958v2.198h1.521v-2.26c1.368-0.153,2.419-0.581,3.157-1.286C24.632,24.275,25,23.345,25,22.193	C25,17.593,17.772,17.945,17.772,15.359z"></path></svg>