<svg xmlns="http://www.w3.org/2000/svg" viewBox="0 0 40 40"><path fill="#dbf2ff" d="M4.5 38.5L4.5 8.694 20 3.527 35.5 8.694 35.5 38.5z"></path><path fill="#7496c4" d="M20,4.054l15,5V38H5V9.054L20,4.054 M20,3L4,8.333V39h32V8.333L20,3L20,3z"></path><path fill="#f78f8f" d="M20 4.473L4.5 9.64 4.5 6.694 20 1.527 35.5 6.694 35.5 9.64z"></path><path fill="#c74343" d="M20,2.054l15,5v1.892L20.316,4.051L20,3.946l-0.316,0.105L5,8.946V7.054L20,2.054 M20,1L4,6.333v4 L20,5l16,5.333v-4L20,1L20,1z"></path><path fill="#b5ddf5" d="M5 34H35V38H5z"></path><path fill="#4e7ab5" d="M17 14H23V18H17zM25 14H31V18H25zM9 14H15V18H9zM17 20H23V24H17zM25 20H31V24H25zM9 20H15V24H9zM17 26H23V30H17zM25 26H31V30H25zM9 26H15V30H9z"></path></svg>