<svg xmlns="http://www.w3.org/2000/svg" viewBox="0 0 40 40"><path fill="#dff0fe" d="M4.5 37.5L4.5 9.694 20 4.527 35.5 9.694 35.5 37.5z"></path><path fill="#4788c7" d="M20,5.054l15,5V37H5V10.054L20,5.054 M20,4L4,9.333V38h32V9.333L20,4L20,4z"></path><path fill="#98ccfd" d="M20 5.473L4.5 10.64 4.5 7.694 20 2.527 35.5 7.694 35.5 10.64z"></path><path fill="#4788c7" d="M20,3.054l15,5v1.892L20.316,5.051L20,4.946l-0.316,0.105L5,9.946V8.054L20,3.054 M20,2L4,7.333v4 L20,6l16,5.333v-4L20,2L20,2z"></path><path fill="#b6dcfe" d="M17.5 15.5H22.5V18.5H17.5z"></path><path fill="#4788c7" d="M22,16v2h-4v-2H22 M23,15h-6v4h6V15L23,15z"></path><path fill="#b6dcfe" d="M25.5 15.5H30.5V18.5H25.5z"></path><path fill="#4788c7" d="M30,16v2h-4v-2H30 M31,15h-6v4h6V15L31,15z"></path><path fill="#b6dcfe" d="M9.5 15.5H14.5V18.5H9.5z"></path><path fill="#4788c7" d="M14,16v2h-4v-2H14 M15,15H9v4h6V15L15,15z"></path><path fill="#b6dcfe" d="M17.5 21.5H22.5V24.5H17.5z"></path><path fill="#4788c7" d="M22,22v2h-4v-2H22 M23,21h-6v4h6V21L23,21z"></path><g><path fill="#b6dcfe" d="M25.5 21.5H30.5V24.5H25.5z"></path><path fill="#4788c7" d="M30,22v2h-4v-2H30 M31,21h-6v4h6V21L31,21z"></path></g><g><path fill="#b6dcfe" d="M9.5 21.5H14.5V24.5H9.5z"></path><path fill="#4788c7" d="M14,22v2h-4v-2H14 M15,21H9v4h6V21L15,21z"></path></g><g><path fill="#b6dcfe" d="M17.5 27.5H22.5V30.5H17.5z"></path><path fill="#4788c7" d="M22,28v2h-4v-2H22 M23,27h-6v4h6V27L23,27z"></path></g><g><path fill="#b6dcfe" d="M25.5 27.5H30.5V30.5H25.5z"></path><path fill="#4788c7" d="M30,28v2h-4v-2H30 M31,27h-6v4h6V27L31,27z"></path></g><g><path fill="#b6dcfe" d="M9.5 27.5H14.5V30.5H9.5z"></path><path fill="#4788c7" d="M14,28v2h-4v-2H14 M15,27H9v4h6V27L15,27z"></path></g></svg>
