<svg xmlns="http://www.w3.org/2000/svg" viewBox="0 0 40 40"><path fill="#bae0bd" d="M2.5 2.5H37.5V37.5H2.5z"></path><path fill="#5e9c76" d="M37,3v34H3V3H37 M38,2H2v36h36V2L38,2z"></path><path fill="#45805b" d="M17.224,15.463c0-1.038,0.931-1.934,2.846-1.934c2.169,0,3.729,0.614,4.943,1.35v-3.505	c-0.902-0.502-2.264-0.796-4.09-0.883V8.129h-1.895v2.414c-1.584,0.156-2.856,0.712-3.816,1.668	c-0.961,0.956-1.442,2.113-1.442,3.472c0,5.368,9.01,5.535,9.01,8.476c0,1.047-1.312,1.856-2.775,1.856	c-2.995,0-5.382-1.268-5.884-1.675v3.596c1.514,0.788,3.15,1.186,4.907,1.194v2.739h1.895v-2.817	c1.705-0.19,3.015-0.724,3.934-1.603c0.916-0.878,1.374-2.036,1.374-3.473C26.231,18.247,17.224,18.685,17.224,15.463z"></path></svg>