<svg xmlns="http://www.w3.org/2000/svg" viewBox="0 0 100 100"><path fill="#f1bc19" d="M77 12A1 1 0 1 0 77 14A1 1 0 1 0 77 12Z"></path><path fill="#e4e4f9" d="M50 13A37 37 0 1 0 50 87A37 37 0 1 0 50 13Z"></path><path fill="#f1bc19" d="M83 11A4 4 0 1 0 83 19A4 4 0 1 0 83 11Z"></path><path fill="#8889b9" d="M87 22A2 2 0 1 0 87 26A2 2 0 1 0 87 22Z"></path><path fill="#fbcd59" d="M81 74A2 2 0 1 0 81 78 2 2 0 1 0 81 74zM15 59A4 4 0 1 0 15 67 4 4 0 1 0 15 59z"></path><path fill="#8889b9" d="M25 85A2 2 0 1 0 25 89A2 2 0 1 0 25 85Z"></path><path fill="#fff" d="M79.5 32A1.5 1.5 0 1 0 79.5 35A1.5 1.5 0 1 0 79.5 32Z"></path><path fill="#c0d078" d="M52.123,64.971c-0.353,0-0.688-0.134-0.942-0.377L39.741,53.661 c-0.263-0.252-0.412-0.591-0.421-0.955c-0.008-0.364,0.126-0.709,0.378-0.972l21.958-22.978c0.26-0.271,0.61-0.421,0.986-0.421 c0.353,0,0.688,0.134,0.942,0.377l11.439,10.933c0.543,0.52,0.563,1.384,0.044,1.928L53.109,64.55 C52.85,64.821,52.499,64.971,52.123,64.971L52.123,64.971z"></path><path fill="#472b29" d="M62.643,29.035c0.171,0,0.334,0.065,0.458,0.184l11.44,10.932 c0.173,0.165,0.203,0.362,0.205,0.465c0.002,0.103-0.018,0.301-0.184,0.473L52.603,64.066c-0.171,0.178-0.374,0.205-0.48,0.205 c-0.171,0-0.334-0.065-0.458-0.184L40.225,53.155c-0.264-0.253-0.274-0.674-0.021-0.938L62.163,29.24 C62.333,29.062,62.537,29.035,62.643,29.035 M62.643,27.635c-0.544,0-1.087,0.214-1.492,0.638L39.192,51.25 c-0.787,0.824-0.758,2.13,0.066,2.917L50.697,65.1c0.4,0.382,0.913,0.572,1.425,0.572c0.544,0,1.087-0.214,1.492-0.638 l21.959-22.977c0.787-0.824,0.758-2.13-0.066-2.917l-11.44-10.932C63.668,27.825,63.155,27.635,62.643,27.635L62.643,27.635z"></path><path fill="#c0d078" d="M55.578,65.203c-0.283,0-0.563-0.077-0.808-0.221l-14.213-8.347 c-0.368-0.216-0.63-0.563-0.737-0.976s-0.048-0.844,0.168-1.212L56.583,26.19c0.286-0.486,0.815-0.789,1.381-0.789 c0.282,0,0.562,0.076,0.807,0.22l14.214,8.347c0.76,0.446,1.015,1.428,0.568,2.188L56.958,64.414 C56.672,64.9,56.144,65.203,55.578,65.203z"></path><path fill="#472b29" d="M57.964,26.101L57.964,26.101c0.16,0,0.312,0.042,0.453,0.124l14.213,8.347 c0.427,0.251,0.57,0.802,0.32,1.229L56.355,64.059c-0.163,0.278-0.454,0.444-0.777,0.444c-0.16,0-0.313-0.042-0.453-0.124 l-14.213-8.347c-0.427-0.251-0.57-0.802-0.32-1.229l16.595-28.258C57.35,26.267,57.641,26.101,57.964,26.101 M57.964,24.701 c-0.788,0-1.556,0.406-1.984,1.135L39.385,54.094c-0.643,1.094-0.277,2.503,0.818,3.146l14.213,8.347 c0.366,0.215,0.766,0.317,1.162,0.317c0.788,0,1.556-0.406,1.984-1.135l16.595-28.258c0.643-1.094,0.277-2.503-0.818-3.146 l-14.213-8.347C58.76,24.804,58.359,24.701,57.964,24.701L57.964,24.701z"></path><path fill="#88ae45" d="M51.461,41.227L43.507,54.75l7.85,4.61c1.562-1.485,3.769-2.097,5.865-1.637l10.566-17.962 c-1.357-1.606-1.86-3.789-1.323-5.837l-4.506-2.646c-1.508,1.329-3.558,1.881-5.527,1.501L55.654,34.1L51.461,41.227z"></path><g><path fill="#c0d078" d="M57.08 39.942A4.919 4.919 0 1 0 57.08 49.779999999999994A4.919 4.919 0 1 0 57.08 39.942Z"></path><path fill="#472b29" d="M57.071,50.032c-0.908,0-1.804-0.241-2.608-0.714c-1.19-0.699-2.037-1.82-2.385-3.156 c-0.348-1.336-0.154-2.728,0.545-3.918c1.444-2.458,4.618-3.282,7.075-1.84c2.457,1.443,3.282,4.617,1.84,7.075 c-0.699,1.191-1.82,2.038-3.157,2.385C57.947,49.977,57.508,50.032,57.071,50.032z M57.089,40.193 c-1.604,0-3.166,0.825-4.034,2.304l0,0c-0.632,1.075-0.807,2.332-0.493,3.539c0.314,1.207,1.079,2.22,2.155,2.852 c1.074,0.631,2.331,0.806,3.538,0.492c1.208-0.314,2.22-1.079,2.852-2.154c1.304-2.22,0.558-5.087-1.662-6.391 C58.704,40.4,57.892,40.193,57.089,40.193z"></path></g><g><path fill="#c0d078" d="M61.471 36A1.471 1.471 0 1 0 61.471 38.94199999999999A1.471 1.471 0 1 0 61.471 36Z"></path><path fill="#472b29" d="M61.469,39.192c-0.303,0-0.602-0.081-0.869-0.238c-0.396-0.232-0.679-0.605-0.794-1.051 c-0.116-0.445-0.051-0.908,0.182-1.304c0.233-0.396,0.606-0.678,1.051-0.793c0.443-0.115,0.908-0.052,1.305,0.181 c0.817,0.481,1.092,1.538,0.612,2.355c-0.233,0.396-0.606,0.678-1.051,0.794C61.76,39.174,61.613,39.192,61.469,39.192z M61.474,36.25c-0.104,0-0.207,0.013-0.31,0.04c-0.315,0.082-0.58,0.282-0.745,0.563v0c-0.166,0.281-0.212,0.609-0.13,0.925 s0.282,0.58,0.563,0.745s0.608,0.211,0.926,0.129c0.315-0.082,0.58-0.282,0.745-0.563c0.341-0.581,0.146-1.33-0.435-1.671 C61.899,36.307,61.688,36.25,61.474,36.25z"></path></g><g><path fill="#472b29" d="M53.676,37.713c-0.043,0-0.087-0.011-0.127-0.035c-0.119-0.07-0.158-0.223-0.089-0.342l1.325-2.254 c0.07-0.12,0.223-0.159,0.343-0.089c0.118,0.07,0.158,0.223,0.089,0.342l-1.325,2.255C53.845,37.669,53.762,37.713,53.676,37.713z"></path></g><g><path fill="#472b29" d="M51.356,59.61c-0.044,0-0.087-0.012-0.127-0.034l-7.849-4.61c-0.057-0.034-0.099-0.089-0.116-0.153 c-0.017-0.063-0.007-0.132,0.027-0.189L51.245,41.1c0.069-0.119,0.222-0.159,0.343-0.088c0.119,0.07,0.158,0.223,0.089,0.342 l-7.828,13.307l7.474,4.39c1.567-1.411,3.7-2.004,5.773-1.609l10.387-17.656c-1.291-1.612-1.773-3.732-1.306-5.74l-4.191-2.462 c-1.498,1.248-3.504,1.792-5.428,1.472l-0.689,1.172c-0.071,0.119-0.225,0.158-0.343,0.088c-0.119-0.07-0.158-0.223-0.089-0.342 l0.778-1.322c0.054-0.091,0.154-0.138,0.264-0.119c1.887,0.367,3.875-0.175,5.314-1.443c0.081-0.072,0.198-0.083,0.292-0.028 l4.506,2.646c0.097,0.057,0.144,0.17,0.115,0.279c-0.516,1.962-0.041,4.06,1.271,5.613c0.068,0.081,0.078,0.196,0.024,0.288 L57.438,57.85c-0.056,0.093-0.158,0.141-0.27,0.117c-2.025-0.446-4.135,0.145-5.64,1.575C51.481,59.587,51.419,59.61,51.356,59.61z"></path></g><g><path fill="#fddbbc" d="M29.54,55.46l2.93-0.917l10.11-15.905c0.407-0.629,1.031-1.098,1.754-1.313l6.045-1.044 l-6.695,11.351c-0.745,1.49,0.29,3.181,1.707,3.979c0.554,0.309,1.115,0.465,1.671,0.465c0.557,0,1.118-0.156,1.669-0.465 l0.057-0.031l7.903-6.599c0.483-0.395,1.101-0.614,1.73-0.614c0.713,0,1.388,0.271,1.901,0.765 c1.026,0.985,1.136,2.569,0.254,3.685L50.202,61.209c-1.477,1.868-3.555,3.166-5.862,3.672L33.182,67.32L29.54,55.46z"></path><path fill="#472b29" d="M49.006,37.23L43.08,47.275l-0.025,0.043l-0.022,0.044c-0.906,1.82,0.313,3.899,2.018,4.86 c0.657,0.367,1.334,0.554,2.01,0.554c0.679,0,1.356-0.187,2.012-0.555l0.113-0.063l0.1-0.083l7.842-6.547 c0.369-0.302,0.817-0.461,1.293-0.461c0.531,0,1.034,0.202,1.417,0.57c0.765,0.734,0.846,1.914,0.214,2.715L49.641,60.79 c-1.365,1.727-3.301,2.936-5.451,3.407l-10.528,2.302L30.414,55.92l2.021-0.633l0.489-0.153l0.275-0.432l9.967-15.68 c0.307-0.474,0.766-0.829,1.298-1.006L49.006,37.23 M51.75,35.333l-7.618,1.32c-0.883,0.264-1.642,0.835-2.143,1.608 l-9.973,15.689L28.667,55l4.035,13.142l11.787-2.578c2.472-0.54,4.681-1.921,6.25-3.906L61.125,49.25 c1.101-1.393,0.963-3.395-0.318-4.624c-0.664-0.637-1.523-0.959-2.386-0.959c-0.77,0-1.542,0.257-2.179,0.777L48.389,51 c-0.465,0.261-0.906,0.376-1.327,0.376c-0.463,0-0.903-0.139-1.327-0.376c-1.109-0.625-1.984-1.938-1.449-3.014L51.75,35.333 L51.75,35.333z"></path></g><g><path fill="#afabd4" d="M22.455 54.973L30.284 52.774 35.53 69.613 27.7 71.812z"></path><path fill="#472b29" d="M29.818,53.632l4.83,15.501l-6.482,1.819l-4.829-15.501L29.818,53.632 M30.75,51.917l-9.178,2.576 l5.662,18.176l9.179-2.576L30.75,51.917L30.75,51.917z"></path></g><g><path fill="#ecad6f" d="M56.375,47.288c0,0,0.229,0.861,0.631,1.263s1.377,0.689,1.377,0.689s1.734-1.798,0.76-2.787 C58.132,45.426,56.375,47.288,56.375,47.288z"></path></g><g><path fill="#472b29" d="M29.183,60.293c-0.212,0-0.408-0.135-0.476-0.348l-1.048-3.274 c-0.084-0.263,0.061-0.544,0.324-0.629c0.265-0.083,0.544,0.061,0.628,0.324l1.048,3.274c0.084,0.263-0.061,0.544-0.324,0.629 C29.284,60.285,29.233,60.293,29.183,60.293z"></path></g><g><path fill="#472b29" d="M31.979,68.682c-0.21,0-0.407-0.134-0.476-0.345l-1.98-6.07c-0.085-0.263,0.058-0.545,0.32-0.631 c0.265-0.084,0.545,0.059,0.631,0.32l1.98,6.07c0.085,0.263-0.058,0.545-0.32,0.631C32.083,68.674,32.03,68.682,31.979,68.682z"></path></g></svg>