<svg xmlns="http://www.w3.org/2000/svg" viewBox="0 0 100 100"><path fill="#ee3e54" d="M13 27A2 2 0 1 0 13 31A2 2 0 1 0 13 27Z"></path><path fill="#f1bc19" d="M77 12A1 1 0 1 0 77 14A1 1 0 1 0 77 12Z"></path><path fill="#fce0a2" d="M50 13A37 37 0 1 0 50 87A37 37 0 1 0 50 13Z"></path><path fill="#f1bc19" d="M83 11A4 4 0 1 0 83 19A4 4 0 1 0 83 11Z"></path><path fill="#ee3e54" d="M87 22A2 2 0 1 0 87 26A2 2 0 1 0 87 22Z"></path><path fill="#fbcd59" d="M81 74A2 2 0 1 0 81 78 2 2 0 1 0 81 74zM15 59A4 4 0 1 0 15 67 4 4 0 1 0 15 59z"></path><path fill="#ee3e54" d="M25 85A2 2 0 1 0 25 89A2 2 0 1 0 25 85Z"></path><path fill="#fff" d="M18.5 51A2.5 2.5 0 1 0 18.5 56A2.5 2.5 0 1 0 18.5 51Z"></path><path fill="#f1bc19" d="M21 66A1 1 0 1 0 21 68A1 1 0 1 0 21 66Z"></path><path fill="#fff" d="M80 33A1 1 0 1 0 80 35A1 1 0 1 0 80 33Z"></path><g><path fill="#f4989e" d="M71.157,41.688c-3.592-4.547-10.805-7.322-17.905-7.322c-7.15,0-13.451,2.439-17.16,6.145 c-0.405-0.367-0.968-1.098-1.957-1.965c-1.382-1.213-2.986-1.952-4.862-2.231c0.614,1.517,0.427,3.094,0.574,4.635 c0.109,1.142,0.021,0.378,0.242,1.586c-0.032,0.018-2.02,0.256-3.011,2.579c-0.683,1.065-1.289,2.197-2.092,3.162 c-1.205,1.447-2.864,2.095-4.717,2.245c-0.273,0.022-0.544,0.068-0.814,0.11c-0.524,0.081-0.868,0.425-0.86,0.923 c0.018,1.081,0.062,2.172,0.229,3.237c0.13,0.829,1.387,1.326,2.337,1.041c0.314-0.094,3.292,2.436,4.801,3.337 c1.623,0.969,3.454,1.133,5.294,0.872c2.533-0.36,8.313-2.498,8.659-2.494c1.023,0.584,2.111,2.352,3.292,2.795 c0.276,2.098,0.383,4.675-0.547,5.614h3.548c0,0,1.899-1.589,2.671-4.178c1.411,0.205,2.869,0.324,4.371,0.324 c3.252,0,6.327-0.506,9.064-1.404c0.152,2.29-0.08,4.425-1.123,5.666h4.4c0,0,8.303-10.004,8.318-16.863 C73.916,46.994,73.316,44.118,71.157,41.688z"></path><path fill="#472b29" d="M65.593,67.097h-4.401c-0.285,0-0.544-0.165-0.664-0.423c-0.119-0.258-0.08-0.563,0.104-0.781 c0.68-0.809,1.019-2.255,0.991-4.213c-3.784,1.099-7.869,1.456-12.242,0.906c-0.909,2.413-2.623,3.867-2.702,3.933 c-0.132,0.11-0.298,0.171-0.47,0.171h-3.548c-0.295,0-0.562-0.178-0.676-0.451c-0.114-0.273-0.053-0.587,0.154-0.797 c0.2-0.202,0.801-1.122,0.39-4.612c-0.639-0.362-1.204-0.955-1.756-1.533c-0.343-0.362-0.697-0.732-1.009-0.969 c-0.269,0.089-0.867,0.286-1.45,0.478c-2.071,0.681-5.202,1.712-6.957,1.962c-2.229,0.317-4.168-0.01-5.772-0.969 c-0.728-0.434-1.764-1.216-2.677-1.905c-0.618-0.467-1.438-1.086-1.791-1.296c-0.704,0.14-1.489-0.005-2.1-0.39 c-0.512-0.322-0.839-0.785-0.92-1.301c-0.179-1.142-0.22-2.28-0.239-3.339c-0.014-0.853,0.582-1.52,1.482-1.658 c0.351-0.055,0.608-0.095,0.865-0.115c1.849-0.151,3.227-0.799,4.213-1.984c0.542-0.65,0.989-1.383,1.462-2.16 c0.18-0.294,0.359-0.588,0.544-0.879c0.744-1.695,1.956-2.433,2.812-2.752c-0.003-0.015-0.006-0.027-0.009-0.04 c-0.038-0.175-0.041-0.175-0.077-0.575l-0.036-0.383c-0.045-0.47-0.061-0.944-0.075-1.418c-0.032-1.062-0.065-2.064-0.449-3.011 c-0.099-0.243-0.06-0.521,0.103-0.727c0.162-0.206,0.427-0.307,0.683-0.272c2.022,0.299,3.735,1.086,5.239,2.404 c0.651,0.57,1.131,1.091,1.482,1.471c0.004,0.004,0.008,0.008,0.013,0.014c4.027-3.674,10.366-5.848,17.139-5.848 c7.57,0,14.816,2.977,18.467,7.584c1.948,2.201,2.933,4.99,2.924,8.287c-0.016,7.042-8.14,16.912-8.485,17.329 C66.017,67,65.811,67.097,65.593,67.097z M65.593,66.365h0.01H65.593z M62.472,65.632h2.771 c1.286-1.612,7.921-10.218,7.934-16.132c0.007-2.936-0.857-5.4-2.569-7.326c-0.009-0.01-0.019-0.022-0.026-0.032 c-3.328-4.212-10.293-7.043-17.331-7.043c-6.704,0-12.925,2.217-16.641,5.931c-0.277,0.278-0.721,0.287-1.01,0.024 c-0.163-0.149-0.352-0.349-0.578-0.593c-0.346-0.376-0.777-0.844-1.371-1.363c-0.992-0.869-2.093-1.469-3.34-1.815 c0.148,0.769,0.171,1.53,0.195,2.275c0.015,0.443,0.027,0.885,0.07,1.325l0.036,0.388c0.025,0.275,0.023,0.275,0.049,0.395 c0.024,0.109,0.065,0.294,0.148,0.741c0.057,0.308-0.089,0.617-0.362,0.77c-0.066,0.038-0.174,0.072-0.249,0.087 c-0.503,0.101-1.751,0.511-2.447,2.141c-0.016,0.038-0.035,0.073-0.058,0.109c-0.19,0.296-0.374,0.598-0.558,0.9 c-0.48,0.788-0.977,1.602-1.587,2.335c-1.236,1.482-2.991,2.326-5.22,2.506c-0.222,0.019-0.444,0.054-0.664,0.089 c-0.34,0.052-0.338,0.15-0.337,0.201c0.017,1.008,0.055,2.084,0.22,3.137c0.015,0.09,0.109,0.197,0.253,0.288 c0.322,0.203,0.795,0.27,1.151,0.164c0.504-0.149,0.891,0.118,2.843,1.592c0.884,0.668,1.885,1.423,2.545,1.816 c1.328,0.794,2.9,1.046,4.817,0.775c1.627-0.231,4.806-1.278,6.704-1.902c1.656-0.545,1.817-0.639,2.064-0.6 c0.126,0.001,0.248,0.035,0.357,0.096c0.544,0.311,1.036,0.828,1.558,1.375c0.552,0.581,1.124,1.181,1.629,1.371 c0.253,0.095,0.433,0.322,0.469,0.589c0.291,2.205,0.271,3.854-0.066,4.978h2.055c0.468-0.454,1.695-1.778,2.255-3.655 c0.105-0.349,0.452-0.568,0.807-0.515c4.729,0.684,9.112,0.261,13.101-1.052c0.214-0.07,0.451-0.038,0.638,0.089 c0.187,0.127,0.307,0.333,0.321,0.559C63.183,62.73,62.991,64.399,62.472,65.632z"></path><path fill="#f1bc19" d="M49.098,37.257c-1.642-1.271-2.699-3.274-2.699-5.525c0-3.843,3.082-6.958,6.885-6.958 c3.802,0,6.885,3.115,6.885,6.958c0,2.243-1.05,4.237-2.681,5.511"></path><path fill="#472b29" d="M49.098,37.78c-0.112,0-0.225-0.036-0.32-0.109c-1.846-1.428-2.902-3.593-2.902-5.939 c0-4.124,3.323-7.481,7.407-7.481c4.085,0,7.408,3.357,7.408,7.481c0,2.334-1.05,4.494-2.881,5.923 c-0.229,0.177-0.558,0.136-0.734-0.091c-0.178-0.228-0.137-0.557,0.091-0.734c1.576-1.229,2.479-3.088,2.479-5.098 c0-3.549-2.854-6.435-6.361-6.435s-6.36,2.887-6.36,6.435c0,2.02,0.91,3.883,2.496,5.111c0.229,0.177,0.271,0.505,0.094,0.733 C49.409,37.71,49.255,37.78,49.098,37.78z"></path><path fill="#fbcd59" d="M53.283 27.182000000000002A4.501 4.549 0 1 0 53.283 36.28A4.501 4.549 0 1 0 53.283 27.182000000000002Z"></path><path fill="#472b29" d="M53.282,36.673c-2.698,0-4.894-2.216-4.894-4.942s2.195-4.943,4.894-4.943 s4.895,2.217,4.895,4.943S55.981,36.673,53.282,36.673z M53.282,27.574c-2.265,0-4.109,1.864-4.109,4.158 c0,2.291,1.844,4.157,4.109,4.157c2.266,0,4.11-1.864,4.11-4.157C57.392,29.439,55.549,27.574,53.282,27.574z"></path><path fill="#fff" d="M31.64 47.352A1.005 1.017 0 1 0 31.64 49.386A1.005 1.017 0 1 0 31.64 47.352Z"></path><path fill="#472b29" d="M31.64 49.779c-.77 0-1.398-.632-1.398-1.409 0-.777.628-1.409 1.398-1.409.771 0 1.399.632 1.399 1.409C33.039 49.147 32.411 49.779 31.64 49.779zM31.64 47.745c-.338 0-.613.28-.613.625 0 .344.275.625.613.625.338 0 .614-.28.614-.625C32.254 48.025 31.978 47.745 31.64 47.745zM77.675 46.153c-.223 0-.429-.143-.499-.367-.087-.275.066-.569.342-.655.403-.127.492-.569.404-.926-.048-.194-.149-.382-.309-.526-.062.402-.212.789-.457 1.117-.515.694-1.368 1.012-2.074.773-.187-.063-.344-.159-.462-.288-.271-.288-.341-.726-.193-1.199.264-.841 1.033-1.492 1.96-1.66.001 0 .002 0 .003 0-.074-.133-.168-.252-.281-.354-.505-.455-1.346-.534-1.995-.188-.635.335-1.107 1.042-1.228 1.845-.043.285-.315.481-.595.438-.285-.043-.482-.31-.438-.595.171-1.124.85-2.125 1.773-2.613 1.041-.551 2.35-.414 3.184.336.349.314.592.727.723 1.176.763.227 1.246.845 1.405 1.487.242.981-.223 1.896-1.107 2.173C77.778 46.146 77.727 46.153 77.675 46.153zM76.593 43.45c-.006.001-.013.003-.019.004-.541.098-1.002.477-1.15.944-.032.105-.029.177-.023.197.324.088.711-.145.916-.42C76.471 43.964 76.562 43.712 76.593 43.45z"></path><g><path fill="#472b29" d="M59.431,38.753c-0.06,0-0.118-0.014-0.174-0.041c-6.146-3.038-11.88-0.037-11.937-0.006 c-0.194,0.103-0.429,0.03-0.532-0.159c-0.103-0.191-0.031-0.428,0.159-0.532c0.247-0.133,6.14-3.232,12.657-0.006 c0.195,0.096,0.274,0.331,0.178,0.525C59.715,38.673,59.576,38.753,59.431,38.753z"></path></g><g><path fill="#472b29" d="M21.063,54.088c-0.136,0-0.25-0.105-0.261-0.241l-0.264-3.361c-0.012-0.144,0.096-0.27,0.24-0.281 c0.157-0.03,0.271,0.097,0.281,0.24l0.264,3.361c0.012,0.144-0.096,0.27-0.24,0.281C21.076,54.088,21.069,54.088,21.063,54.088z"></path></g><g><path fill="#472b29" d="M21.177,55.547c-0.136,0-0.25-0.105-0.261-0.241l-0.038-0.492c-0.012-0.144,0.096-0.27,0.24-0.281 c0.15-0.026,0.27,0.097,0.281,0.24l0.038,0.492c0.012,0.144-0.096,0.27-0.24,0.281C21.189,55.547,21.183,55.547,21.177,55.547z"></path></g><g><path fill="#472b29" d="M52.492,33.042c0.006,0,0.02,0.007,0.041,0.02l-0.01-0.005c0.098,0.068,0.186,0.121,0.265,0.16 c0.077,0.039,0.161,0.067,0.249,0.084v-1.58l-0.091-0.051c-0.112-0.061-0.219-0.126-0.32-0.194 c-0.101-0.068-0.194-0.142-0.274-0.223c-0.082-0.082-0.15-0.167-0.206-0.259c-0.055-0.091-0.094-0.191-0.114-0.299 c-0.014-0.054-0.021-0.105-0.023-0.153c-0.002-0.048-0.002-0.098-0.002-0.153c0-0.159,0.026-0.298,0.078-0.416 c0.052-0.118,0.125-0.22,0.217-0.302c0.091-0.083,0.2-0.15,0.325-0.199c0.126-0.048,0.263-0.082,0.411-0.098v-0.142 c0-0.068,0.016-0.126,0.046-0.173c0.03-0.048,0.087-0.071,0.167-0.071h0.02c0.176,0,0.273,0.087,0.29,0.259l-0.005,0.137 c0.095,0.017,0.193,0.043,0.292,0.078s0.212,0.081,0.338,0.135l-0.016-0.009c0.058,0.02,0.103,0.046,0.135,0.076 c0.032,0.03,0.051,0.08,0.059,0.148v0.03c0,0.024-0.006,0.054-0.018,0.091c-0.012,0.037-0.029,0.073-0.053,0.107 c-0.024,0.033-0.051,0.064-0.082,0.089c-0.03,0.026-0.064,0.039-0.101,0.039c-0.03,0-0.059-0.002-0.084-0.007 c-0.025-0.005-0.055-0.019-0.089-0.043v0.005l-0.055-0.03c-0.098-0.051-0.207-0.092-0.325-0.122v1.387l0.02,0.01 c0.274,0.139,0.487,0.293,0.635,0.462c0.15,0.169,0.247,0.345,0.295,0.528c0.02,0.077,0.035,0.149,0.043,0.213 c0.008,0.064,0.013,0.131,0.013,0.198c0,0.156-0.025,0.296-0.076,0.422c-0.051,0.126-0.12,0.234-0.208,0.327 s-0.194,0.169-0.318,0.229c-0.123,0.06-0.258,0.099-0.404,0.119v0.366c0,0.068-0.014,0.126-0.041,0.173 c-0.027,0.048-0.083,0.071-0.167,0.071h-0.03c-0.085,0-0.153-0.023-0.203-0.069c-0.051-0.046-0.076-0.113-0.076-0.201v-0.34 c-0.183-0.02-0.34-0.061-0.473-0.122c-0.132-0.061-0.268-0.137-0.407-0.229c-0.038-0.03-0.063-0.059-0.076-0.087 c-0.014-0.027-0.029-0.064-0.046-0.112v-0.03c0-0.03,0.009-0.066,0.028-0.105c0.019-0.039,0.042-0.076,0.069-0.112 c0.027-0.036,0.055-0.066,0.087-0.091c0.03-0.025,0.06-0.039,0.087-0.039c0.038,0,0.07,0.01,0.099,0.033 c0.028,0.022,0.056,0.045,0.084,0.068h0.004c0.006,0.003,0.012,0.005,0.015,0.005L52.492,33.042z M52.755,30.883 c0.08,0.074,0.174,0.14,0.281,0.198v-1.112c-0.129,0.027-0.236,0.08-0.322,0.157c-0.087,0.077-0.13,0.183-0.13,0.315 c0,0.02,0.001,0.043,0.002,0.066c0.002,0.024,0.006,0.052,0.013,0.087C52.623,30.712,52.675,30.808,52.755,30.883z M53.799,32.222 c-0.068-0.083-0.15-0.155-0.244-0.216v1.265c0.118-0.048,0.218-0.12,0.297-0.219c0.08-0.097,0.119-0.213,0.119-0.345 c0-0.038-0.003-0.071-0.01-0.101s-0.014-0.063-0.02-0.096C53.914,32.401,53.866,32.306,53.799,32.222z"></path></g></g><g><path fill="#fbcd59" d="M62.252 57.211A6.791 6.791 0 1 0 62.252 70.79299999999999A6.791 6.791 0 1 0 62.252 57.211Z"></path><path fill="#472b29" d="M62.252,71.294c-4.021,0-7.292-3.271-7.292-7.291s3.271-7.292,7.292-7.292 s7.291,3.271,7.291,7.292S66.273,71.294,62.252,71.294z M62.252,57.711c-3.47,0-6.292,2.822-6.292,6.292 c0,3.469,2.822,6.291,6.292,6.291c3.469,0,6.291-2.822,6.291-6.291C68.543,60.533,65.721,57.711,62.252,57.711z"></path><path fill="#f1bc19" d="M62.252 59.56099999999999A4.441 4.441 0 1 0 62.252 68.443A4.441 4.441 0 1 0 62.252 59.56099999999999Z"></path><path fill="#472b29" d="M62.252,68.693c-2.586,0-4.69-2.104-4.69-4.69c0-2.587,2.104-4.691,4.69-4.691 s4.69,2.104,4.69,4.691C66.943,66.588,64.838,68.693,62.252,68.693z M62.252,59.811c-2.311,0-4.19,1.88-4.19,4.191 s1.88,4.19,4.19,4.19s4.19-1.88,4.19-4.19C66.443,61.691,64.563,59.811,62.252,59.811z"></path><path fill="#fbcd59" d="M73.585 51.507000000000005A6.791 6.791 0 1 0 73.585 65.089A6.791 6.791 0 1 0 73.585 51.507000000000005Z"></path><path fill="#472b29" d="M73.585,65.589c-4.021,0-7.291-3.271-7.291-7.292s3.271-7.291,7.291-7.291 s7.292,3.271,7.292,7.291S77.606,65.589,73.585,65.589z M73.585,52.006c-3.469,0-6.291,2.822-6.291,6.291 c0,3.47,2.822,6.292,6.291,6.292c3.47,0,6.292-2.822,6.292-6.292C79.877,54.829,77.055,52.006,73.585,52.006z"></path><g><path fill="#f1bc19" d="M73.585 53.857A4.441 4.441 0 1 0 73.585 62.739000000000004A4.441 4.441 0 1 0 73.585 53.857Z"></path><path fill="#472b29" d="M73.585,62.988c-2.586,0-4.69-2.104-4.69-4.69s2.104-4.69,4.69-4.69s4.69,2.104,4.69,4.69 S76.171,62.988,73.585,62.988z M73.585,54.107c-2.311,0-4.19,1.88-4.19,4.19s1.88,4.19,4.19,4.19s4.19-1.88,4.19-4.19 S75.896,54.107,73.585,54.107z"></path></g><g><path fill="#472b29" d="M72.905,59.484c0.006,0,0.018,0.006,0.037,0.018l-0.009-0.005c0.089,0.061,0.169,0.11,0.239,0.145 c0.071,0.035,0.146,0.06,0.225,0.076v-1.43l-0.083-0.046c-0.101-0.055-0.198-0.113-0.29-0.175s-0.175-0.129-0.248-0.202 c-0.074-0.073-0.136-0.152-0.186-0.234c-0.051-0.083-0.085-0.173-0.104-0.271c-0.012-0.049-0.019-0.095-0.021-0.138 c-0.002-0.043-0.002-0.089-0.002-0.138c0-0.144,0.024-0.27,0.071-0.377c0.048-0.107,0.113-0.199,0.196-0.274 c0.083-0.075,0.181-0.135,0.294-0.18c0.113-0.044,0.238-0.074,0.372-0.089v-0.129c0-0.061,0.014-0.113,0.042-0.156 s0.078-0.064,0.152-0.064h0.019c0.159,0,0.247,0.078,0.262,0.234l-0.004,0.124c0.086,0.015,0.174,0.039,0.264,0.071 c0.091,0.032,0.192,0.073,0.306,0.122l-0.013-0.009c0.052,0.018,0.092,0.041,0.122,0.069c0.029,0.028,0.047,0.072,0.053,0.133 v0.028c0,0.022-0.006,0.049-0.016,0.083c-0.011,0.034-0.027,0.066-0.048,0.097c-0.022,0.031-0.046,0.058-0.074,0.08 c-0.028,0.023-0.058,0.035-0.092,0.035c-0.028,0-0.053-0.003-0.076-0.007c-0.023-0.004-0.05-0.018-0.08-0.039v0.004l-0.051-0.028 c-0.089-0.046-0.187-0.083-0.294-0.11v1.255l0.018,0.009c0.248,0.126,0.44,0.265,0.575,0.418 c0.135,0.153,0.224,0.312,0.267,0.478c0.018,0.07,0.031,0.135,0.039,0.193c0.007,0.058,0.012,0.118,0.012,0.179 c0,0.141-0.023,0.268-0.069,0.382c-0.046,0.113-0.109,0.212-0.188,0.297c-0.08,0.084-0.176,0.153-0.287,0.207 c-0.112,0.054-0.234,0.09-0.366,0.108v0.331c0,0.061-0.012,0.113-0.037,0.156c-0.024,0.043-0.075,0.064-0.152,0.064h-0.03 c-0.077,0-0.138-0.021-0.184-0.062s-0.069-0.102-0.069-0.181v-0.308c-0.165-0.018-0.308-0.055-0.427-0.11 c-0.12-0.055-0.242-0.124-0.368-0.207c-0.034-0.027-0.057-0.054-0.069-0.078s-0.026-0.058-0.041-0.101v-0.028 c0-0.027,0.008-0.059,0.025-0.094c0.017-0.036,0.037-0.069,0.062-0.101c0.025-0.032,0.051-0.06,0.078-0.083 c0.028-0.023,0.054-0.034,0.078-0.034c0.034,0,0.064,0.01,0.09,0.03c0.026,0.02,0.051,0.04,0.076,0.062L72.905,59.484 c0.006,0.003,0.01,0.004,0.013,0.004L72.905,59.484z M73.142,57.53c0.072,0.067,0.157,0.127,0.255,0.179v-1.007 c-0.116,0.025-0.214,0.072-0.292,0.143c-0.078,0.071-0.117,0.166-0.117,0.285c0,0.018,0.001,0.039,0.002,0.06 s0.005,0.048,0.012,0.078C73.023,57.375,73.07,57.462,73.142,57.53z M74.087,58.741c-0.061-0.075-0.135-0.14-0.221-0.195v1.145 c0.107-0.043,0.197-0.109,0.269-0.198s0.108-0.193,0.108-0.312c0-0.034-0.003-0.064-0.009-0.092 c-0.006-0.028-0.012-0.057-0.018-0.088C74.191,58.903,74.148,58.817,74.087,58.741z"></path></g><g><path fill="#472b29" d="M61.537,65.189c0.006,0,0.018,0.006,0.037,0.018l-0.009-0.005c0.089,0.061,0.169,0.11,0.239,0.145 c0.071,0.035,0.146,0.06,0.225,0.076v-1.43l-0.083-0.046c-0.101-0.055-0.198-0.113-0.29-0.175s-0.175-0.129-0.248-0.202 c-0.074-0.073-0.136-0.152-0.186-0.234c-0.051-0.083-0.085-0.173-0.104-0.271c-0.012-0.049-0.019-0.095-0.021-0.138 c-0.002-0.043-0.002-0.089-0.002-0.138c0-0.144,0.024-0.27,0.071-0.377c0.048-0.107,0.113-0.199,0.196-0.274 c0.083-0.075,0.181-0.135,0.294-0.18c0.113-0.044,0.238-0.074,0.372-0.089V61.74c0-0.061,0.014-0.113,0.042-0.156 s0.078-0.064,0.152-0.064h0.019c0.159,0,0.247,0.078,0.262,0.234l-0.004,0.124c0.086,0.015,0.174,0.039,0.264,0.071 c0.091,0.032,0.192,0.073,0.306,0.122l-0.013-0.009c0.052,0.018,0.092,0.041,0.122,0.069c0.029,0.028,0.047,0.072,0.053,0.133 v0.028c0,0.022-0.006,0.049-0.016,0.083c-0.011,0.034-0.027,0.066-0.048,0.097c-0.022,0.031-0.046,0.058-0.074,0.08 c-0.028,0.023-0.058,0.035-0.092,0.035c-0.028,0-0.053-0.003-0.076-0.007c-0.023-0.004-0.05-0.018-0.08-0.039v0.004l-0.051-0.028 c-0.089-0.046-0.187-0.083-0.294-0.11v1.255l0.018,0.009c0.248,0.126,0.44,0.265,0.575,0.418 c0.135,0.153,0.224,0.312,0.267,0.478c0.018,0.07,0.031,0.135,0.039,0.193c0.007,0.058,0.012,0.118,0.012,0.179 c0,0.141-0.023,0.268-0.069,0.382c-0.046,0.113-0.109,0.212-0.188,0.297c-0.08,0.084-0.176,0.153-0.287,0.207 c-0.112,0.054-0.234,0.09-0.366,0.108v0.331c0,0.061-0.012,0.113-0.037,0.156c-0.024,0.043-0.075,0.064-0.152,0.064h-0.028 c-0.077,0-0.138-0.021-0.184-0.062c-0.046-0.042-0.069-0.102-0.069-0.181v-0.308c-0.165-0.018-0.308-0.055-0.427-0.11 c-0.12-0.055-0.242-0.124-0.368-0.207c-0.034-0.027-0.057-0.054-0.069-0.078s-0.026-0.058-0.041-0.101v-0.028 c0-0.027,0.008-0.059,0.025-0.094c0.017-0.036,0.037-0.069,0.062-0.101c0.025-0.032,0.051-0.06,0.078-0.083 c0.028-0.023,0.054-0.034,0.078-0.034c0.034,0,0.064,0.01,0.09,0.03c0.026,0.02,0.051,0.04,0.076,0.062H61.537 c0.006,0.003,0.01,0.004,0.013,0.004L61.537,65.189z M61.774,63.234c0.072,0.067,0.157,0.127,0.255,0.179v-1.007 c-0.116,0.025-0.214,0.072-0.292,0.143s-0.117,0.166-0.117,0.285c0,0.018,0.001,0.039,0.002,0.06s0.005,0.048,0.012,0.078 C61.655,63.08,61.702,63.167,61.774,63.234z M62.719,64.446c-0.061-0.075-0.135-0.14-0.221-0.195v1.145 c0.107-0.043,0.197-0.109,0.269-0.198s0.108-0.193,0.108-0.312c0-0.034-0.003-0.064-0.009-0.092 c-0.006-0.028-0.012-0.057-0.018-0.088C62.823,64.607,62.78,64.521,62.719,64.446z"></path></g></g></svg>