<svg xmlns="http://www.w3.org/2000/svg" viewBox="0 0 64 64"><g id="_x30_5_Safe_Money_Deposit_Bank_Account"><path fill="#c2cde7" d="M58,53H6c-1.7,0-3-1.3-3-3V12c0-1.7,1.3-3,3-3h52c1.7,0,3,1.3,3,3v38C61,51.7,59.7,53,58,53z"></path><path fill="#acb7d0" d="M58,31H6c-1.7,0-3,1.3-3,3v16c0,1.7,1.3,3,3,3h52c1.7,0,3-1.3,3-3V34C61,32.3,59.7,31,58,31z"></path><path fill="#9cb0c3" d="M11 53H17V57H11zM47 53H53V57H47z"></path><path fill="#d3e0e8" d="M53,47H11c-1.1,0-2-0.9-2-2V17c0-1.1,0.9-2,2-2h42c1.1,0,2,0.9,2,2v28C55,46.1,54.1,47,53,47z"></path><path fill="#dce9f0" d="M38.7 47L24 47 49.3 15 53 15 55 16 55 26.4zM17.7 47L10.7 47 36 15 43 15z"></path><path fill="#ffeb9b" d="M53 21H57V27H53zM53 35H57V41H53z"></path><path fill="#dce9f0" d="M9 38.6L27.7 15 29 15 9 40.3z"></path><path fill="#f5c872" d="M32 22A9 9 0 1 0 32 40A9 9 0 1 0 32 22Z"></path><path fill="#ffeb9b" d="M32 26A5 5 0 1 0 32 36A5 5 0 1 0 32 26Z"></path><path fill="#8d6c9f" d="M59,8H5c-1.7,0-3,1.3-3,3v40c0,1.7,1.3,3,3,3h5v2c0,1.1,0.9,2,2,2h4c1.1,0,2-0.9,2-2v-2h28v2 c0,1.1,0.9,2,2,2h4c1.1,0,2-0.9,2-2v-2h5c1.7,0,3-1.3,3-3V11C62,9.3,60.7,8,59,8z M16,56h-4v-2h4L16,56z M52,56h-4v-2h4L52,56z M60,51c0,0.6-0.4,1-1,1h-7h-4H16h-4H5c-0.6,0-1-0.4-1-1V11c0-0.6,0.4-1,1-1h54c0.6,0,1,0.4,1,1V51z"></path><path fill="#8d6c9f" d="M55,43c-0.6,0-1,0.4-1,1v1c0,0.6-0.4,1-1,1H11c-0.6,0-1-0.4-1-1V17c0-0.6,0.4-1,1-1h42c0.6,0,1,0.4,1,1v1 c0,0.6,0.4,1,1,1s1-0.4,1-1v-1c0-1.7-1.3-3-3-3H11c-1.7,0-3,1.3-3,3v28c0,1.7,1.3,3,3,3h42c1.7,0,3-1.3,3-3v-1 C56,43.4,55.6,43,55,43z"></path><path fill="#8d6c9f" d="M56 32v-2c0-.6-.4-1-1-1s-1 .4-1 1v2c0 .6.4 1 1 1S56 32.6 56 32zM56 20h-2c-1.1 0-2 .9-2 2v4c0 1.1.9 2 2 2h2c1.1 0 2-.9 2-2v-4C58 20.9 57.1 20 56 20zM56 26h-2v-4l2 0V26zM56 34h-2c-1.1 0-2 .9-2 2v4c0 1.1.9 2 2 2h2c1.1 0 2-.9 2-2v-4C58 34.9 57.1 34 56 34zM56 40h-2v-4l2 0V40zM22 31c0 5.5 4.5 10 10 10s10-4.5 10-10-4.5-10-10-10S22 25.5 22 31zM40.2 31c0 4.5-3.7 8.2-8.2 8.2-4.5 0-8.2-3.7-8.2-8.2 0-4.5 3.7-8.2 8.2-8.2C36.5 22.8 40.2 26.5 40.2 31z"></path><path fill="#8d6c9f" d="M31 25v1.8c0 .6.4 1 1 1s1-.4 1-1V25c0-.6-.4-1-1-1S31 24.4 31 25zM12 23v16c0 .6.4 1 1 1s1-.4 1-1V23c0-.6-.4-1-1-1S12 22.4 12 23zM32 34c-.6 0-1 .4-1 1v1.8c0 .6.4 1 1 1s1-.4 1-1V35C33 34.4 32.6 34 32 34zM28.8 31c0-.6-.4-1-1-1H26c-.6 0-1 .4-1 1s.4 1 1 1h1.8C28.4 32 28.8 31.6 28.8 31zM35.2 31c0 .6.4 1 1 1H38c.6 0 1-.4 1-1s-.4-1-1-1h-1.8C35.6 30 35.2 30.4 35.2 31zM28.5 26c-.4-.4-1-.4-1.4 0-.4.4-.4 1 0 1.4l1.3 1.3c.2.2.5.3.7.3s.5-.1.7-.3c.4-.4.4-1 0-1.4L28.5 26zM35.5 35.8c.2.2.5.3.7.3s.5-.1.7-.3c.4-.4.4-1 0-1.4l-1.3-1.3c-.4-.4-1-.4-1.4 0s-.4 1 0 1.4L35.5 35.8zM28.4 33.2l-1.3 1.3c-.4.4-.4 1 0 1.4.2.2.5.3.7.3s.5-.1.7-.3l1.3-1.3c.4-.4.4-1 0-1.4S28.8 32.8 28.4 33.2zM35 29c.3 0 .5-.1.7-.3l1.3-1.3c.4-.4.4-1 0-1.4s-1-.4-1.4 0l-1.3 1.3c-.4.4-.4 1 0 1.4C34.5 28.9 34.7 29 35 29z"></path></g></svg>